<svg width="48" height="48" xmlns="http://www.w3.org/2000/svg">
 <title/>

 <g>
  <title>background</title>
  <rect fill="none" id="canvas_background" height="402" width="582" y="-1" x="-1"/>
 </g>
 <g>
  <title>Layer 1</title>
  <path fill="#ffffff" id="svg_1" d="m37.45,25a1.38,1.38 0 0 0 -1.6,1.11a11.93,11.93 0 1 1 -14.77,-13.65a11.92,11.92 0 0 1 14.56,8.54a1.38,1.38 0 0 0 2.67,-0.7a14.69,14.69 0 1 0 -14.21,18.39a14.89,14.89 0 0 0 3.72,-0.48a14.74,14.74 0 0 0 10.74,-11.63a1.37,1.37 0 0 0 -1.11,-1.58zm-5.17,-1a1.37,1.37 0 0 0 -1.38,-1.37l-9.35,0l4,-4a1.39,1.39 0 0 0 0,-2a1.38,1.38 0 0 0 -2,0l-6.29,6.37l0,0a1.37,1.37 0 0 0 0,1.95l0,0l6.3,6.3a1.37,1.37 0 0 0 1,0.41a1.38,1.38 0 0 0 1,-2.35l-4,-4l9.34,0a1.38,1.38 0 0 0 1.38,-1.31z"/>
 </g>
</svg>