<svg height="512pt" viewBox="-75 0 512 512" width="512pt" xmlns="http://www.w3.org/2000/svg"><path d="m352 330.667969c0 94.25-76.414062 170.664062-170.667969 170.664062-94.25 0-170.664062-76.414062-170.664062-170.664062 0-43.925781 36.734375-95.105469 64-160 31.230469-74.328125 21.332031-160 106.664062-160 86.230469 0 75.394531 84.457031 106.667969 160 26.558594 64.148437 64 116.714843 64 160zm0 0" fill="#8bc34a"/><path d="m181.332031 234.667969c-44.007812 0-74.664062 56.210937-74.664062 106.664062 0 50.242188 30.699219 85.335938 74.664062 85.335938 43.96875 0 74.667969-35.09375 74.667969-85.335938 0-50.453125-30.675781-106.664062-74.667969-106.664062zm0 0" fill="#8d6e63"/><path d="m181.332031 512c-99.988281 0-181.332031-81.34375-181.332031-181.332031 0-31.9375 16.960938-65.621094 36.628906-104.621094 9.492188-18.859375 19.328125-38.355469 28.203125-59.519531 8.234375-19.5625 13.523438-40.105469 18.667969-59.96875 13.546875-52.371094 27.539062-106.558594 97.832031-106.558594 71.042969 0 84.140625 51.585938 98.007813 106.21875 5.054687 19.902344 10.28125 40.492188 18.515625 60.375 8.8125 21.289062 18.796875 41.171875 28.4375 60.394531 19.519531 38.890625 36.394531 72.488281 36.394531 103.699219-.019531 99.96875-81.363281 181.3125-181.355469 181.3125zm0-490.667969c-51.285156 0-62.226562 32.726563-77.183593 90.5625-5.332032 20.605469-10.816407 41.898438-19.648438 62.910157-9.171875 21.824218-19.15625 41.664062-28.820312 60.84375-18.433594 36.566406-34.347657 68.160156-34.347657 95.019531 0 88.234375 71.765625 160 160 160s160-71.765625 160-160c0-26.15625-15.808593-57.664063-34.109375-94.144531-9.816406-19.5625-19.96875-39.789063-29.078125-61.78125-8.8125-21.292969-14.230469-42.644532-19.476562-63.277344-14.636719-57.554688-25.429688-90.132813-77.335938-90.132813zm0 0"/><path d="m181.332031 426.667969c-43.964843 0-74.664062-35.09375-74.664062-85.335938 0-50.453125 30.65625-106.664062 74.664062-106.664062 43.992188 0 74.667969 56.210937 74.667969 106.664062 0 50.242188-30.699219 85.335938-74.667969 85.335938zm0-170.667969c-27.410156 0-53.332031 41.472656-53.332031 85.332031 0 38.273438 21.441406 64 53.332031 64 31.894531 0 53.335938-25.726562 53.335938-64 0-43.859375-25.921875-85.332031-53.335938-85.332031zm0 0"/></svg>