<svg height="512pt" viewBox="0 -64 512.14747 512" width="512pt" xmlns="http://www.w3.org/2000/svg"><path d="m505.066406.757812c-4.203125-1.515624-8.875-.382812-11.796875 3.027344-1.707031 1.964844-4.695312 5.421875-8.0625 5.207032-2.925781-.085938-6.210937-3.15625-7.253906-4.542969-3.160156-4.308594-9.046875-5.589844-13.78125-2.964844-4.714844 2.601563-6.699219 8.363281-4.695313 13.332031.449219 1.171875 11.074219 28.523438-10.070312 65.300782-1.875 3.265624-1.875 7.316406 0 10.601562l42.667969 74.667969c1.921875 3.371093 5.503906 5.375 9.257812 5.375.898438 0 1.816407-.125 2.730469-.359375 4.671875-1.261719 7.9375-5.484375 7.9375-10.304688v-149.335937c.019531-4.457031-2.753906-8.445313-6.933594-10.003907zm0 0" fill="#f57c00"/><path d="m483.414062 93.066406c-18.347656-14.890625-39.722656-16.9375-53.121093-4.949218-31.894531 28.417968-112.128907 97.621093-168.449219 126.464843-27.304688 13.996094-75.710938 24.960938-122.558594 35.5625-56.339844 12.757813-105.003906 23.765625-124.800781 40.449219-3.433594 2.898438-4.671875 7.613281-3.136719 11.839844 1.558594 4.179687 5.546875 6.976562 10.027344 6.976562 3.5625 0 21.335938.511719 21.335938 10.664063 0 10.15625-17.773438 10.667969-21.335938 10.667969-5.097656 0-9.472656 3.605468-10.453125 8.574218-1 4.992188 1.6875 10.007813 6.378906 11.949219 54.464844 22.546875 106.453125 32.105469 154.964844 32.105469 158.039063 0 279.082031-101.484375 327.703125-185.984375 24.445312-42.558594 8.554688-83.902344-16.554688-104.320313zm0 0" fill="#ffc107"/><path d="m21.375 288.074219c-2.644531 0-5.183594.980469-7.125 2.753906-1.472656 1.277344-14.2070312 13.226563-14.2070312 29.246094 0 16.042969 12.7578122 27.96875 14.2070312 29.269531 1.964844 1.75 4.480469 2.730469 7.125 2.730469 25.921875 0 42.667969-12.566407 42.667969-32 0-19.433594-16.746094-32-42.667969-32zm0 0" fill="#546e7a"/><path d="m126.550781 334.878906c-17.859375 0-36.417969-1.066406-55.703125-3.328125-3.199218-.382812-5.78125-.679687-7.699218-.851562-5.867188-.492188-10.21875-5.632813-9.75-11.519531.46875-5.867188 5.4375-10.410157 11.519531-9.75 2.089843.171874 4.925781.492187 8.425781.894531 157.140625 18.476562 283.863281-41.320313 376.535156-177.621094 3.304688-4.863281 9.941406-6.121094 14.824219-2.816406 4.863281 3.308593 6.144531 9.941406 2.816406 14.828125-60.800781 89.410156-167.742187 190.164062-340.96875 190.164062zm0 0"/><path d="m501.355469 170.761719c-5.890625 0-10.667969-4.777344-10.667969-10.664063v-130.347656c-2.367188.492188-4.542969.617188-6.378906.53125-.191406 0-.382813 0-.554688-.019531.703125 15.167969-2.003906 36.457031-15.808594 60.480469-2.941406 5.121093-9.46875 6.847656-14.570312 3.945312-5.117188-2.941406-6.867188-9.449219-3.945312-14.570312 21.140624-36.777344 10.515624-64.128907 10.070312-65.28125-2.007812-4.988282-.023438-10.730469 4.691406-13.351563 4.714844-2.605469 10.601563-1.34375 13.78125 2.964844 1.066406 1.386719 4.351563 4.4375 7.253906 4.523437 3.371094.597656 6.359376-3.222656 8.0625-5.207031 2.925782-3.371094 7.597657-4.585937 11.800782-3.007813 4.15625 1.558594 6.929687 5.546876 6.929687 9.984376v149.332031c0 5.910156-4.777343 10.6875-10.664062 10.6875zm0 0"/><path d="m172.332031 383.390625c-48.535156 0-100.546875-9.554687-155.074219-32.105469-1.109374-.449218-2.132812-1.109375-3.027343-1.898437-1.453125-1.300781-14.230469-13.203125-14.230469-29.289063 0-16.085937 12.757812-27.992187 14.230469-29.292968 20.09375-16.9375 68.863281-27.988282 125.3125-40.765626 46.695312-10.582031 95.015625-21.503906 122.28125-35.457031 58.601562-29.953125 143.722656-104.363281 168.40625-126.441406 13.375-11.96875 34.6875-9.984375 53.011719 4.863281 25.195312 20.414063 41.152343 61.800782 16.683593 104.40625-48.554687 84.5-169.535156 185.980469-327.59375 185.980469zm-144.984375-51.027344c218.625 89.28125 394.414063-41.707031 454.082032-145.578125 18.238281-31.765625 6.761718-62.292968-11.628907-77.207031-9.746093-7.914063-20.179687-10.175781-25.34375-5.546875-32.277343 28.863281-113.703125 99.285156-172.925781 129.558594-29.652344 15.148437-79.273438 26.390625-127.273438 37.269531-49.238281 11.136719-100.140624 22.65625-116.035156 36.054687-1.578125 1.449219-6.867187 7.59375-6.867187 13.183594 0 4.796875 3.816406 9.875 5.992187 12.265625zm0 0"/><path d="m21.355469 352.097656c-5.890625 0-10.667969-4.78125-10.667969-10.667968 0-5.886719 4.777344-10.667969 10.667969-10.667969 3.5625 0 21.332031-.511719 21.332031-10.664063 0-10.15625-17.769531-10.667968-21.332031-10.667968-5.890625 0-10.667969-4.777344-10.667969-10.667969 0-5.886719 4.777344-10.664063 10.667969-10.664063 25.917969 0 42.664062 12.5625 42.664062 32 0 19.433594-16.765625 32-42.664062 32zm0 0"/></svg>