<svg height="493pt" viewBox="0 -33 493.32454 493" width="493pt" xmlns="http://www.w3.org/2000/svg"><path d="m10.667969 42.84375c-5.890625 0-10.667969 4.777344-10.667969 10.664062 0 61.355469 40.191406 117.25 107.5 149.460938.789062.386719 1.640625.664062 2.515625.832031l154.558594 30.828125c.683593.128906 1.386719.214844 2.09375.214844 2.429687 0 4.839843-.855469 6.761719-2.410156 2.453124-2.027344 3.902343-5.058594 3.902343-8.257813 0-87.339843-83.476562-181.332031-266.664062-181.332031zm0 0" fill="#4caf50"/><path d="m270.933594 251.441406c-16-48.214844-60.585938-80.597656-110.933594-80.597656-64.683594 0-117.332031 52.628906-117.332031 117.332031 0 64.683594 52.648437 117.332031 117.332031 117.332031 41.28125 0 78.742188-21.375 100.265625-57.152343 1.601563-2.664063 1.964844-5.886719.980469-8.832031-8.746094-26.558594-5.585938-55.445313 8.707031-79.25 1.597656-2.648438 1.960937-5.890626.980469-8.832032zm0 0" fill="#3f51b5"/><path d="m490.347656 8.28125c-.664062-2.75-2.410156-5.117188-4.84375-6.570312-2.433594-1.472657-5.355468-1.917969-8.0625-1.238282-149.527344 36.84375-234.027344 156.355469-219.136718 244.867188.703124 4.136718 3.796874 7.527344 7.871093 8.554687.875.234375 1.769531.339844 2.644531.339844 3.199219 0 6.316407-1.449219 8.386719-4.03125l2.175781-2.839844c1.46875-1.960937 2.941407-3.945312 4.734376-5.738281h.019531c24.238281-24.277344 58.816406-33.40625 92.503906-24.445312 3.007813.808593 6.269531.234374 8.808594-1.558594 73.410156-51.03125 120.472656-144.042969 104.898437-207.339844zm0 0" fill="#43a047"/><path d="m434.945312 226.542969c-22.144531-22.164063-51.628906-34.367188-82.945312-34.367188-31.359375 0-60.820312 12.203125-82.988281 34.367188-45.757813 45.761719-45.757813 120.171875 0 165.929687 22.167969 22.167969 51.628906 34.371094 82.988281 34.371094 31.339844 0 60.800781-12.203125 82.964844-34.371094 22.164062-22.164062 34.367187-51.625 34.367187-82.964844 0-31.335937-12.222656-60.820312-34.386719-82.964843zm0 0" fill="#5c6bc0"/><path d="m221.289062 318.105469 11.222657-19.476563c2.15625-3.753906 1.835937-8.425781-.789063-11.839844-2.644531-3.414062-7.039062-4.949218-11.222656-3.796874l-14.25 3.816406-11.457031-12.882813c-2.6875-3.03125-6.867188-4.289062-10.75-3.199219-3.90625 1.042969-6.871094 4.203126-7.679688 8.167969l-3.433593 16.917969-14.230469 3.839844c-4.160157 1.109375-7.253907 4.628906-7.808594 8.917968-.554687 4.265626 1.515625 8.449219 5.246094 10.625l19.5 11.21875-3.222657 15.832032c-.914062 4.5 1.175782 9.085937 5.144532 11.371094 1.640625.957031 3.476562 1.40625 5.3125 1.40625 2.535156 0 5.074218-.917969 7.082031-2.6875l13.84375-12.308594 18.15625 3.691406c4.480469.9375 9.066406-1.175781 11.371094-5.144531 2.28125-3.988281 1.769531-8.980469-1.304688-12.394531zm0 0" fill="#283593"/><path d="m394.410156 272.390625-11.988281-8.597656 2.730469-17.046875c.617187-4.011719-1.046875-8-4.332032-10.347656-3.261718-2.367188-7.613281-2.664063-11.175781-.765626l-15.277343 8.0625-11.988282-8.574218c-3.476562-2.539063-8.171875-2.667969-11.839844-.40625-3.667968 2.261718-5.609374 6.550781-4.886718 10.792968l3.671875 22.1875-14.316407 7.550782c-4.054687 2.15625-6.292968 6.65625-5.546874 11.160156.746093 4.542969 4.308593 8.085938 8.832031 8.808594l18.28125 2.902344 8.640625 16.40625c1.898437 3.496093 5.546875 5.652343 9.453125 5.652343.574219 0 1.171875-.042969 1.746093-.148437 4.523438-.746094 8.066407-4.308594 8.792969-8.855469l2.535157-15.957031 22.167968-3.648438c4.246094-.679687 7.65625-3.902344 8.660156-8.105468 1.003907-4.179688-.640624-8.554688-4.160156-11.070313zm0 0" fill="#283593"/><path d="m182.847656 359.023438c-1.835937 0-3.667968-.46875-5.332031-1.429688-3.992187-2.28125-6.039063-6.867188-5.121094-11.371094l3.222657-15.847656-19.480469-11.222656c-3.730469-2.15625-5.800781-6.335938-5.246094-10.625.554687-4.289063 3.625-7.808594 7.785156-8.917969l14.230469-3.839844 3.457031-16.894531c.808594-3.96875 3.773438-7.125 7.679688-8.171875 3.882812-1.042969 8.042969.191406 10.730469 3.222656l11.476562 12.882813 14.230469-3.839844c4.160156-1.109375 8.597656.386719 11.222656 3.800781 2.621094 3.410157 2.941406 8.082031.789063 11.816407l-11.203126 19.476562 10.730469 12.074219c3.050781 3.4375 3.566407 8.429687 1.28125 12.417969-2.261719 3.988281-6.824219 6.101562-11.371093 5.121093l-18.132813-3.691406-13.867187 12.351563c-2.003907 1.769531-4.542969 2.6875-7.082032 2.6875zm5.417969-45.953126 4.671875 2.6875c2.433594 1.386719 4.140625 3.628907 4.886719 6.210938-.617188-2.605469-.257813-5.398438 1.128906-7.832031l2.667969-4.671875c-2.644532-.253906-5.140625-1.46875-6.953125-3.539063l-1.6875-1.878906-.488281 2.453125c-.535157 2.6875-2.070313 5.015625-4.226563 6.570312zm-6.207031-8.679687h.214844zm0 0"/><path d="m266.667969 234.84375c-5.890625 0-10.667969-4.78125-10.667969-10.667969 0-75.347656-73.386719-156.308593-234.199219-159.871093 4.332031 49.277343 38.378907 92.371093 94.914063 119.421874 5.3125 2.539063 7.550781 8.917969 5.011718 14.230469-2.558593 5.332031-8.894531 7.550781-14.226562 5.011719-67.328125-32.210938-107.5-88.082031-107.5-149.460938 0-5.886718 4.777344-10.664062 10.667969-10.664062 183.210937 0 266.664062 93.992188 266.664062 181.332031 0 5.886719-4.777343 10.667969-10.664062 10.667969zm0 0"/><path d="m160 405.507812c-64.703125 0-117.332031-52.628906-117.332031-117.332031s52.628906-117.332031 117.332031-117.332031c50.367188 0 94.953125 32.402344 110.933594 80.597656.980468 2.941406.617187 6.183594-.980469 8.851563-14.273437 23.785156-17.453125 52.652343-8.683594 79.230469.960938 2.945312.597657 6.167968-.980469 8.832031-21.546874 35.800781-59.03125 57.152343-100.289062 57.152343zm0-213.332031c-52.929688 0-96 43.070313-96 96 0 52.929688 43.070312 96 96 96 32.171875 0 61.566406-15.9375 79.507812-42.878906-8.320312-29.441406-4.863281-60.824219 9.601563-87.53125-14.25-37.035156-49.515625-61.589844-89.109375-61.589844zm0 0"/><path d="m268.820312 254.234375c-.894531 0-1.769531-.105469-2.664062-.339844-4.078125-1.046875-7.148438-4.417969-7.851562-8.554687-14.871094-88.511719 69.632812-208 219.136718-244.84375 2.730469-.703125 5.628906-.257813 8.0625 1.238281 2.410156 1.449219 4.160156 3.816406 4.84375 6.570313 15.574219 63.273437-31.488281 156.285156-104.917968 207.335937-2.582032 1.773437-5.78125 2.347656-8.832032 1.558594-33.644531-8.960938-68.265625.191406-92.5 24.449219-1.773437 1.769531-3.203125 3.734374-4.695312 5.652343l-2.21875 2.902344c-2.070313 2.582031-5.164063 4.03125-8.363282 4.03125zm202.6875-230.101563c-116.285156 32.894532-189.117187 121.835938-193.34375 194.21875 27.414063-22.058593 64.042969-30.675781 98.964844-22.976562 59.394532-43.242188 100.117188-118.058594 94.378906-171.242188zm0 0"/><path d="m352 426.800781c-30.058594 0-60.097656-11.4375-82.964844-34.304687-45.761718-45.761719-45.761718-120.191406 0-165.929688 45.757813-45.738281 120.191406-45.761718 165.929688 0 45.738281 45.757813 45.761718 120.191406 0 165.929688-22.890625 22.847656-52.925782 34.304687-82.964844 34.304687zm0-213.25c-24.574219 0-49.171875 9.34375-67.882812 28.074219-37.417969 37.441406-37.417969 98.328125 0 135.765625 37.441406 37.441406 98.324218 37.441406 135.765624 0 37.417969-37.4375 37.417969-98.324219 0-135.765625-18.730468-18.730469-43.308593-28.074219-67.882812-28.074219zm0 0"/><path d="m354.667969 320.175781c-3.90625 0-7.574219-2.15625-9.429688-5.695312l-8.640625-16.382813-18.28125-2.925781c-4.546875-.722656-8.109375-4.265625-8.855468-8.789063-.746094-4.523437 1.472656-9.023437 5.546874-11.179687l14.292969-7.527344-3.648437-22.1875c-.703125-4.265625 1.238281-8.511719 4.886718-10.796875 3.667969-2.257812 8.339844-2.109375 11.839844.40625l11.988282 8.578125 15.253906-8.042969c3.5625-1.878906 7.894531-1.578124 11.179687.765626 3.285157 2.347656 4.949219 6.359374 4.328125 10.347656l-2.707031 17.046875 11.988281 8.597656c3.5 2.515625 5.140625 6.890625 4.160156 11.089844-.980468 4.203125-4.394531 7.40625-8.640624 8.085937l-22.1875 3.671875-2.558594 15.957031c-.726563 4.542969-4.265625 8.105469-8.789063 8.851563-.574219.085937-1.152343.128906-1.726562.128906zm-4.90625-40.425781c1.621093-2.242188 4.074219-3.839844 6.929687-4.308594l5.3125-.875c-1.46875-2.21875-2.109375-4.90625-1.683594-7.617187l.40625-2.496094-2.21875 1.171875c-2.433593 1.261719-5.226562 1.558594-7.765624.875l.875 5.3125c.46875 2.839844-.257813 5.695312-1.855469 7.9375zm0 0"/></svg>