<svg height="511pt" viewBox="0 0 511 511.97716" width="511pt" xmlns="http://www.w3.org/2000/svg"><path d="m151.914062 282.878906c-5.441406-1.707031-11.160156 1.195313-13.121093 6.484375-1.6875 4.566407-9.984375 9.28125-20.972657 9.28125-10.964843 0-19.285156-4.714843-20.96875-9.28125-1.964843-5.289062-7.746093-8.171875-13.121093-6.484375-49.792969 15.1875-83.242188 60.117188-83.242188 111.765625 0 64.703125 52.628907 117.332031 117.332031 117.332031 64.707032 0 117.335938-52.628906 117.335938-117.332031 0-51.648437-33.453125-96.554687-83.242188-111.765625zm0 0" fill="#f44336"/><path d="m428.222656 282.878906c-5.398437-1.707031-11.15625 1.195313-13.121094 6.484375-1.683593 4.566407-10.003906 9.28125-20.96875 9.28125-10.988281 0-19.285156-4.714843-20.972656-9.28125-1.960937-5.289062-7.765625-8.171875-13.121094-6.484375-49.789062 15.1875-83.242187 60.117188-83.242187 111.765625 0 64.703125 52.628906 117.332031 117.335937 117.332031 64.703126 0 117.332032-52.628906 117.332032-117.332031 0-51.648437-33.449219-96.554687-83.242188-111.765625zm0 0" fill="#f44336"/><path d="m117.820312 511.976562c-64.679687 0-117.332031-52.628906-117.332031-117.332031 0-51.648437 33.449219-96.554687 83.242188-111.765625 5.335937-1.707031 11.136719 1.214844 13.097656 6.507813 1.707031 4.542969 10.027344 9.257812 20.992187 9.257812 10.96875 0 19.265626-4.714843 20.949219-9.257812 1.964844-5.292969 7.640625-8.171875 13.121094-6.507813 49.792969 15.1875 83.242187 60.117188 83.242187 111.765625.023438 64.703125-52.605468 117.332031-117.3125 117.332031zm-35.433593-206.035156c-36.542969 14.460938-60.566407 49.171875-60.566407 88.703125 0 52.925781 43.074219 96 96 96 52.929688 0 96-43.074219 96-96 0-39.53125-24.042968-74.242187-60.585937-88.703125-7.65625 8.660156-20.691406 14.035156-35.414063 14.035156-14.71875 0-27.753906-5.375-35.433593-14.035156zm0 0"/><path d="m117.820312 469.308594c-41.171874 0-74.664062-33.492188-74.664062-74.664063 0-5.890625 4.777344-10.667969 10.664062-10.667969 5.890626 0 10.667969 4.777344 10.667969 10.667969 0 29.398438 23.914063 53.332031 53.332031 53.332031 5.890626 0 10.667969 4.777344 10.667969 10.667969 0 5.886719-4.757812 10.664063-10.667969 10.664063zm0 0"/><path d="m394.132812 511.976562c-64.683593 0-117.335937-52.628906-117.335937-117.332031 0-51.648437 33.453125-96.554687 83.242187-111.765625 5.460938-1.707031 11.160157 1.214844 13.121094 6.507813 1.6875 4.542969 9.984375 9.257812 20.972656 9.257812 10.984376 0 19.285157-4.714843 20.96875-9.257812 1.964844-5.292969 7.765626-8.171875 13.097657-6.507813 49.792969 15.1875 83.242187 60.117188 83.242187 111.765625.023438 64.703125-52.628906 117.332031-117.308594 117.332031zm-35.4375-206.035156c-36.542968 14.460938-60.585937 49.171875-60.585937 88.703125 0 52.925781 43.074219 96 96 96 52.929687 0 96-43.074219 96-96 0-39.53125-24.019531-74.242187-60.566406-88.703125-7.65625 8.660156-20.691407 14.035156-35.410157 14.035156-14.722656 0-27.757812-5.375-35.4375-14.035156zm0 0"/><path d="m394.132812 469.308594c-41.175781 0-74.667968-33.492188-74.667968-74.664063 0-5.890625 4.777344-10.667969 10.667968-10.667969 5.886719 0 10.664063 4.777344 10.664063 10.667969 0 29.398438 23.914063 53.332031 53.335937 53.332031 5.886719 0 10.664063 4.777344 10.664063 10.667969 0 5.886719-4.777344 10.664063-10.664063 10.664063zm0 0"/><path d="m394.132812 319.976562c-5.867187 0-10.648437-4.757812-10.667968-10.644531-.148438-64.8125-34.601563-117.589843-65.003906-164.160156-27.390626-41.984375-53.289063-81.621094-51.261719-124.375.277343-5.886719 5.375-10.535156 11.132812-10.152344 5.867188.277344 10.433594 5.269531 10.15625 11.15625-1.664062 35.863281 21.269531 70.996094 47.851563 111.703125 32 49.042969 68.289062 104.636719 68.457031 175.785156.023437 5.886719-4.757813 10.6875-10.664063 10.6875zm0 0"/><path d="m117.820312 319.976562c-5.886718 0-10.664062-4.777343-10.664062-10.667968 0-125.097656 144.980469-298.664063 170.664062-298.664063 5.890626 0 10.667969 4.777344 10.667969 10.664063 0 5.078125-3.542969 9.324218-8.277343 10.390625-19.542969 11.15625-151.722657 163.242187-151.722657 277.609375 0 5.890625-4.757812 10.667968-10.667969 10.667968zm0 0"/><path d="m309.820312 42.644531c-1.128906 0-2.238281-.171875-3.367187-.554687l-64-21.335938c-5.589844-1.855468-8.597656-7.890625-6.742187-13.480468 1.875-5.589844 7.957031-8.554688 13.503906-6.742188l64 21.332031c5.589844 1.859375 8.597656 7.894531 6.742187 13.484375-1.496093 4.480469-5.675781 7.296875-10.136719 7.296875zm0 0"/></svg>