<svg height="512pt" viewBox="-43 0 512 512" width="512pt" xmlns="http://www.w3.org/2000/svg"><path d="m213.332031 0c-123.605469 0-213.332031 98.6875-213.332031 234.667969 0 147.730469 99.691406 277.332031 213.332031 277.332031 113.644531 0 213.335938-129.601562 213.335938-277.332031 0-135.980469-89.730469-234.667969-213.335938-234.667969zm0 0" fill="#4caf50"/><g fill="#388e3c"><path d="m170.667969 405.332031c-11.757813 0-21.335938-9.554687-21.335938-21.332031s9.578125-21.332031 21.335938-21.332031c11.753906 0 21.332031 9.554687 21.332031 21.332031s-9.578125 21.332031-21.332031 21.332031zm0-21.351562 10.664062.019531zm0 0"/><path d="m213.332031 448c-11.753906 0-21.332031-9.558594-21.332031-21.332031 0-11.777344 9.578125-21.335938 21.332031-21.335938 11.757813 0 21.335938 9.558594 21.335938 21.335938 0 11.773437-9.578125 21.332031-21.335938 21.332031zm0-21.355469 10.667969.023438zm0 0"/><path d="m160 458.667969c-11.753906 0-21.332031-9.558594-21.332031-21.335938 0-11.773437 9.578125-21.332031 21.332031-21.332031s21.332031 9.558594 21.332031 21.332031c0 11.777344-9.578125 21.335938-21.332031 21.335938zm0-21.355469 10.667969.019531zm0 0"/></g><path d="m170.667969 405.332031c-11.777344 0-21.335938-9.578125-21.335938-21.332031s9.558594-21.332031 21.335938-21.332031c11.773437 0 21.332031 9.578125 21.332031 21.332031s-9.558594 21.332031-21.332031 21.332031zm0-21.351562c0 .019531 0 .019531 0 0l10.664062.019531zm0 0"/><path d="m213.332031 448c-11.773437 0-21.332031-9.578125-21.332031-21.332031 0-11.757813 9.558594-21.335938 21.332031-21.335938 11.777344 0 21.335938 9.578125 21.335938 21.335938 0 11.753906-9.558594 21.332031-21.335938 21.332031zm0-21.355469c0 .023438 0 .023438 0 0l10.667969.023438zm0 0"/><path d="m160 458.667969c-11.777344 0-21.332031-9.578125-21.332031-21.335938 0-11.753906 9.554687-21.332031 21.332031-21.332031s21.332031 9.578125 21.332031 21.332031c0 11.757813-9.554687 21.335938-21.332031 21.335938zm0-21.355469c0 .019531 0 .019531 0 0l10.667969.019531zm0 0"/><path d="m213.332031 512c-113.640625 0-213.332031-129.601562-213.332031-277.332031 0-135.980469 89.726562-234.667969 213.332031-234.667969s213.335938 98.6875 213.335938 234.667969c0 147.730469-99.691407 277.332031-213.335938 277.332031zm0-490.667969c-111.253906 0-192 89.730469-192 213.335938 0 136.382812 89.730469 256 192 256 102.273438 0 192-119.617188 192-256 0-123.605469-80.746093-213.335938-192-213.335938zm0 0"/></svg>