<svg height="512pt" viewBox="-43 0 512 512" width="512pt" xmlns="http://www.w3.org/2000/svg"><path d="m272.65625 126.613281c-8.917969-7.296875-16.640625-13.609375-19.007812-16.296875-5.570313-6.359375-9.152344-11.777344-8.429688-17.472656.726562-5.804688 6.125-15.851562 27.777344-30.699219 4.160156-2.859375 5.761718-8.277343 3.777344-12.949219-9.941407-23.511718-21.484376-43.117187-21.953126-43.949218-1.898437-3.261719-5.398437-5.246094-9.171874-5.246094-40.234376 0-51.757813 35.136719-60.140626 60.820312-3.753906 11.414063-7.296874 22.1875-12.289062 28.652344-8.277344 10.6875-22.867188 25.28125-39.742188 42.175782-55.59375 55.660156-139.625 139.777343-133.121093 221.203124 8.640625 108.589844 73.023437 159.148438 202.625 159.148438 150.71875 0 224-52.332031 224-160 0-99.308594-108.140625-187.667969-154.324219-225.386719zm0 0" fill="#9fa8da"/><path d="m232.164062 176.148438c-8.917968-7.296876-15.445312-12.605469-20.671874-17.515626-4.222657-4.007812-10.859376-3.839843-14.953126.320313-5.570312 5.71875-11.542968 11.691406-17.792968 17.941406-57.449219 57.515625-118.441406 122.902344-114.601563 170.882813 4.007813 50.707031 18.089844 100.222656 138.835938 100.222656 147.648437 0 160-49.558594 160-96 0-68.929688-95.019531-146.601562-130.816407-175.851562zm0 0" fill="#f06292"/><path d="m202.980469 512c-129.601563 0-193.984375-50.582031-202.625-159.148438-6.503907-81.425781 77.527343-165.542968 133.121093-221.203124 16.875-16.894532 31.464844-31.488282 39.722657-42.199219 4.992187-6.460938 8.535156-17.234375 12.289062-28.648438 8.402344-25.664062 19.925781-60.800781 60.160157-60.800781 3.773437 0 7.273437 1.984375 9.191406 5.246094.472656.832031 12.011718 20.4375 21.953125 43.949218 1.984375 4.671876.40625 10.089844-3.773438 12.949219-21.65625 14.847657-27.050781 24.894531-27.777343 30.699219-.726563 5.695312 2.859374 11.113281 8.425781 17.472656 2.347656 2.6875 10.089843 9 19.007812 16.296875 46.1875 37.738281 154.304688 126.101563 154.304688 225.386719 0 107.667969-73.28125 160-224 160zm36.691406-490.21875c-18.472656 2.859375-25.34375 19.625-33.898437 45.695312-4.328126 13.207032-8.445313 25.6875-15.679688 35.074219-9.109375 11.753907-24.125 26.792969-41.492188 44.203125-52.84375 52.882813-132.671874 132.820313-126.976562 204.433594 7.660156 96.449219 63.59375 139.480469 181.355469 139.480469 140.160156 0 202.667969-42.773438 202.667969-138.667969 0-89.195312-102.65625-173.054688-146.476563-208.875-10.859375-8.875-18.027344-14.71875-21.546875-18.773438-7.699219-8.789062-15.359375-19.734374-13.546875-34.175781 1.6875-13.523437 11.160156-26.515625 29.65625-40.449219-5.335937-11.730468-10.753906-21.949218-14.0625-27.945312zm0 0"/><path d="m202.980469 448c-120.746094 0-134.828125-49.515625-138.835938-100.246094-3.839843-47.976562 57.152344-113.34375 114.601563-170.859375 6.25-6.25 12.222656-12.222656 17.792968-17.941406 4.074219-4.160156 10.707032-4.328125 14.953126-.320313 5.226562 4.910157 11.753906 10.21875 20.671874 17.515626 35.796876 29.25 130.816407 106.902343 130.816407 175.851562 0 46.441406-12.351563 96-160 96zm1.707031-266.902344c-3.5 3.542969-7.125 7.148438-10.859375 10.882813-36.289063 36.328125-111.785156 111.914062-108.4375 154.089843 3.777344 47.1875 14.402344 80.597657 117.589844 80.597657 138.667969 0 138.667969-43.160157 138.667969-74.667969 0-58.816406-92.546876-134.441406-122.964844-159.296875-5.441406-4.457031-10.050782-8.210937-13.996094-11.605469zm0 0"/><path d="m192.3125 245.332031c0 5.890625-4.773438 10.667969-10.664062 10.667969-5.890626 0-10.667969-4.777344-10.667969-10.667969s4.777343-10.664062 10.667969-10.664062c5.890624 0 10.664062 4.773437 10.664062 10.664062zm0 0"/><path d="m256.3125 309.332031c0 5.890625-4.773438 10.667969-10.664062 10.667969-5.890626 0-10.667969-4.777344-10.667969-10.667969s4.777343-10.664062 10.667969-10.664062c5.890624 0 10.664062 4.773437 10.664062 10.664062zm0 0"/><path d="m128.3125 352c0 5.890625-4.773438 10.667969-10.664062 10.667969-5.890626 0-10.667969-4.777344-10.667969-10.667969s4.777343-10.667969 10.667969-10.667969c5.890624 0 10.664062 4.777344 10.664062 10.667969zm0 0"/><path d="m213.648438 288c0 5.890625-4.777344 10.667969-10.667969 10.667969s-10.667969-4.777344-10.667969-10.667969 4.777344-10.667969 10.667969-10.667969 10.667969 4.777344 10.667969 10.667969zm0 0"/><path d="m213.648438 373.332031c0 5.890625-4.777344 10.667969-10.667969 10.667969s-10.667969-4.777344-10.667969-10.667969 4.777344-10.664062 10.667969-10.664062 10.667969 4.773437 10.667969 10.664062zm0 0"/><path d="m256.3125 352c0 5.890625-4.773438 10.667969-10.664062 10.667969-5.890626 0-10.667969-4.777344-10.667969-10.667969s4.777343-10.667969 10.667969-10.667969c5.890624 0 10.664062 4.777344 10.664062 10.667969zm0 0"/><path d="m234.980469 224c0 5.890625-4.777344 10.667969-10.667969 10.667969s-10.664062-4.777344-10.664062-10.667969 4.773437-10.667969 10.664062-10.667969 10.667969 4.777344 10.667969 10.667969zm0 0"/><path d="m170.980469 330.667969c0 5.890625-4.777344 10.664062-10.667969 10.664062s-10.664062-4.773437-10.664062-10.664062 4.773437-10.667969 10.664062-10.667969 10.667969 4.777344 10.667969 10.667969zm0 0"/><path d="m256.3125 394.667969c0 5.890625-4.773438 10.664062-10.664062 10.664062-5.890626 0-10.667969-4.773437-10.667969-10.664062s4.777343-10.667969 10.667969-10.667969c5.890624 0 10.664062 4.777344 10.664062 10.667969zm0 0"/><path d="m170.980469 394.667969c0 5.890625-4.777344 10.664062-10.667969 10.664062s-10.664062-4.773437-10.664062-10.664062 4.773437-10.667969 10.664062-10.667969 10.667969 4.777344 10.667969 10.667969zm0 0"/><path d="m277.648438 266.667969c0 5.890625-4.777344 10.664062-10.667969 10.664062s-10.667969-4.773437-10.667969-10.664062 4.777344-10.667969 10.667969-10.667969 10.667969 4.777344 10.667969 10.667969zm0 0"/><path d="m298.980469 330.667969c0 5.890625-4.777344 10.664062-10.667969 10.664062s-10.664062-4.773437-10.664062-10.664062 4.773437-10.667969 10.664062-10.667969 10.667969 4.777344 10.667969 10.667969zm0 0"/><path d="m320.3125 373.332031c0 5.890625-4.773438 10.667969-10.664062 10.667969-5.890626 0-10.667969-4.777344-10.667969-10.667969s4.777343-10.664062 10.667969-10.664062c5.890624 0 10.664062 4.773437 10.664062 10.664062zm0 0"/><path d="m149.648438 288c0 5.890625-4.777344 10.667969-10.667969 10.667969s-10.667969-4.777344-10.667969-10.667969 4.777344-10.667969 10.667969-10.667969 10.667969 4.777344 10.667969 10.667969zm0 0"/></svg>