<svg height="509pt" viewBox="-65 0 509 509.86667" width="509pt" xmlns="http://www.w3.org/2000/svg"><path d="m369.5 277.332031c0 12.800781-17.941406 24.066407-19.796875 36.246094-1.921875 12.628906 11.816406 28.714844 8.128906 40.46875-3.820312 12.203125-24.320312 17.539063-29.824219 28.566406-5.695312 11.457031 2.304688 31.039063-4.929687 40.980469-7.550781 10.367188-28.628906 8.621094-37.523437 17.046875-9.34375 8.832031-9.066407 30.015625-19.542969 36.371094-10.945313 6.636719-29.3125-3.644531-41.109375-.082031-12.09375 3.644531-22.058594 22.269531-34.601563 22.269531-12.566406 0-22.527343-18.625-34.625-22.269531-11.796875-3.5625-30.164062 6.695312-41.128906.0625-10.476563-6.359376-10.199219-27.519532-19.523437-36.351563-8.914063-8.425781-29.972657-6.679687-37.523438-17.046875-7.230469-9.941406.769531-29.523438-4.929688-40.980469-5.480468-11.027343-25.980468-16.339843-29.800781-28.523437-3.691406-11.773438 10.027344-27.859375 8.128907-40.488282-1.855469-12.203124-19.796876-23.46875-19.796876-36.269531 0-12.796875 17.941407-24.0625 19.796876-36.242187 1.917968-12.632813-11.820313-28.714844-8.128907-40.472656 3.820313-12.203126 24.320313-17.535157 29.824219-28.5625 5.695312-11.457032-2.324219-31.042969 4.925781-40.984376 7.53125-10.367187 28.609375-8.617187 37.527344-17.042968 9.34375-8.832032 9.066406-30.015625 19.542969-36.375 10.941406-6.632813 29.308594 3.648437 41.109375.085937 12.09375-3.648437 22.058593-22.273437 34.601562-22.273437 12.566407 0 22.527344 18.625 34.625 22.273437 11.796875 3.5625 30.164063-6.699219 41.128907-.0625 10.476562 6.355469 10.199218 27.519531 19.519531 36.351563 8.917969 8.425781 29.972656 6.675781 37.527343 17.042968 7.230469 9.941407-.769531 29.527344 4.925782 40.984376 5.484375 11.027343 25.984375 16.339843 29.804687 28.519531 3.6875 11.777343-10.027343 27.863281-8.128906 40.492187 1.855469 12.203125 19.796875 23.46875 19.796875 36.265625zm0 0" fill="#cddc39"/><path d="m179.632812 277.332031.085938-17.171875c.339844-46.484375.660156-90.367187-20.949219-119.210937-6.1875-8.234375-15.59375-12.949219-25.835937-12.949219-10.238282 0-19.667969 4.734375-25.8125 12.949219-21.695313 28.929687-34.132813 78.65625-34.132813 136.382812 0 57.75 12.4375 107.457031 34.132813 136.386719 6.164062 8.234375 15.574218 12.949219 25.8125 12.949219 10.242187 0 19.648437-4.738281 25.835937-12.949219 21.609375-28.824219 21.289063-72.707031 20.949219-119.210938zm0 0" fill="#ff9800"/><path d="m273.5 140.949219c-6.164062-8.234375-15.574219-12.949219-25.835938-12.949219-10.238281 0-19.648437 4.734375-25.832031 12.949219-21.613281 28.84375-21.292969 72.726562-20.949219 119.210937l.082032 17.171875-.082032 17.175781c-.34375 46.503907-.664062 90.386719 20.949219 119.210938 6.183594 8.234375 15.59375 12.949219 25.832031 12.949219 10.242188 0 19.648438-4.738281 25.816407-12.949219 21.695312-28.90625 34.132812-78.636719 34.132812-136.386719.019531-57.726562-12.417969-107.433593-34.113281-136.382812zm0 0" fill="#ff9800"/><path d="m190.300781 509.867188c-11.136719 0-19.308593-7.574219-26.519531-14.273438-3.816406-3.539062-8.148438-7.550781-11.175781-8.46875-2.796875-.808594-8.535157.148438-13.613281 1.066406-9.597657 1.6875-20.4375 3.648438-29.972657-2.089844-8.9375-5.417968-12.289062-15.550781-15.253906-24.449218-1.707031-5.160156-3.648437-11.007813-6.058594-13.269532-2.109375-1.984374-7.808593-3.453124-12.863281-4.757812-9.214844-2.367188-19.648438-5.054688-25.960938-13.757812-6.015624-8.277344-5.484374-18.710938-4.992187-27.925782.277344-5.460937.597656-11.648437-.855469-14.570312-1.320312-2.625-6.269531-5.953125-10.644531-8.894532-7.785156-5.230468-16.617187-11.136718-19.796875-21.230468-3.074219-9.726563.683594-19.410156 4.011719-27.964844 1.984375-5.121094 4.222656-10.902344 3.753906-14.125-.449219-2.878906-4.160156-7.550781-7.46875-11.667969-5.84375-7.296875-12.457031-15.617187-12.457031-26.15625 0-10.539062 6.613281-18.835937 12.457031-26.152343 3.285156-4.117188 7.019531-8.8125 7.46875-11.671876.46875-3.21875-1.75-9-3.734375-14.121093-3.347656-8.554688-7.105469-18.238281-4.054688-27.945313 3.179688-10.113281 12.011719-16.023437 19.820313-21.25 4.375-2.945312 9.34375-6.25 10.625-8.875 1.472656-2.921875 1.152344-9.128906.875-14.589844-.492187-9.21875-1.023437-19.648437 4.992187-27.925781 6.335938-8.703125 16.765626-11.394531 25.984376-13.78125 5.03125-1.300781 10.75-2.773437 12.863281-4.757812 2.410156-2.28125 4.351562-8.128907 6.058593-13.269531 2.984376-8.917969 6.335938-19.03125 15.296876-24.449219 9.449218-5.738281 20.328124-3.796875 29.949218-2.066407 5.015625.914063 10.773438 1.960938 13.589844 1.066407 3.050781-.917969 7.359375-4.929688 11.15625-8.449219 7.234375-6.71875 15.402344-14.292969 26.519531-14.292969 11.136719 0 19.304688 7.574219 26.515625 14.269531 3.820313 3.542969 8.148438 7.554688 11.179688 8.472657 2.816406.832031 8.535156-.171875 13.609375-1.066407 9.558593-1.707031 20.417969-3.691406 29.972656 2.089844 8.941406 5.417969 12.289063 15.550782 15.253906 24.445313 1.707031 5.164062 3.648438 11.007812 6.058594 13.269531 2.113281 1.984375 7.808594 3.457031 12.867187 4.757812 9.214844 2.367188 19.644532 5.058594 25.960938 13.761719 6.015625 8.277344 5.484375 18.707031 4.992188 27.925781-.277344 5.460938-.597657 11.648438.851562 14.570313 1.324219 2.625 6.273438 5.949219 10.648438 8.894531 7.785156 5.226563 16.617187 11.117188 19.796874 21.207032 3.070313 9.75-.683593 19.433593-4.011718 27.988281-1.984375 5.097656-4.222656 10.902343-3.753906 14.121093.445312 2.882813 4.160156 7.554688 7.464843 11.671876 5.824219 7.316406 12.460938 15.59375 12.460938 26.152343 0 10.5625-6.636719 18.839844-12.460938 26.15625-3.285156 4.117188-7.019531 8.808594-7.464843 11.667969-.46875 3.222656 1.75 9.003906 3.734374 14.125 3.324219 8.554688 7.082032 18.238281 4.03125 27.964844-3.179687 10.113281-12.011718 16.023437-19.820312 21.25-4.371094 2.945312-9.34375 6.25-10.625 8.875-1.46875 2.921875-1.152344 9.128906-.875 14.589844.472656 9.21875 1.027344 19.648437-4.988281 27.925781-6.335938 8.707031-16.769531 11.394531-25.984375 13.78125-5.035156 1.300781-10.753906 2.773437-12.867188 4.757812-2.410156 2.285157-4.351562 8.128907-6.058594 13.292969-2.984374 8.914062-6.335937 19.027344-15.292968 24.445312-9.453125 5.738282-20.375 3.820313-29.953125 2.070313-5.054688-.917969-10.796875-1.898437-13.589844-1.085937-3.050781.914062-7.359375 4.925781-11.15625 8.445312-7.191406 6.699219-15.382813 14.273438-26.496094 14.273438zm-40.554687-44.394532c3.027344 0 6.035156.339844 9.023437 1.238282 7.765625 2.324218 14.015625 8.125 19.519531 13.246093 3.902344 3.628907 9.257813 8.578125 12.011719 8.578125 2.75 0 8.105469-4.949218 12.011719-8.578125 5.503906-5.121093 11.753906-10.902343 19.496094-13.246093 7.789062-2.328126 15.765625-.898438 23.53125.488281 5.609375 1.003906 12.566406 2.261719 15.148437.683593 2.21875-1.34375 4.457031-8.042968 6.078125-12.949218 2.496094-7.550782 5.355469-16.085938 11.648438-22.039063 6.101562-5.78125 14.675781-7.976562 22.207031-9.917969 5.441406-1.410156 12.203125-3.15625 14.039063-5.675781 1.578124-2.175781 1.214843-9.152343.960937-14.25-.429687-8.085937-.898437-17.257812 3.070313-25.214843 3.820312-7.660157 11.265624-12.671876 17.855468-17.089844 4.628906-3.113282 10.390625-6.976563 11.328125-9.917969.8125-2.605469-1.621093-8.855469-3.5625-13.867187-2.945312-7.574219-6.273437-16.171876-4.929687-25.003907 1.28125-8.511719 6.890625-15.550781 11.882812-21.78125 3.457032-4.351562 7.789063-9.769531 7.789063-12.863281s-4.332031-8.492188-7.789063-12.863281c-4.96875-6.230469-10.601562-13.269531-11.882812-21.804688-1.320313-8.808593 2.007812-17.40625 4.929687-25 1.941407-5.035156 4.375-11.289062 3.542969-13.890625-.917969-2.921875-6.65625-6.761718-11.285156-9.875-6.613282-4.417968-14.058594-9.410156-17.902344-17.089844-3.945312-7.9375-3.453125-17.109374-3.046875-25.195312.253906-5.097656.617187-12.09375-.960937-14.269531-1.8125-2.496094-8.578126-4.246094-14.015626-5.65625-7.554687-1.941407-16.109374-4.136719-22.210937-9.917969-6.292969-5.953125-9.148437-14.507812-11.644531-22.058594-1.625-4.886718-3.84375-11.5625-6.058594-12.929687-2.605469-1.597657-9.582031-.339844-15.167969.664062-7.726562 1.386719-15.726562 2.855469-23.53125.488281-7.765625-2.324218-14.015625-8.128906-19.519531-13.246093-3.882812-3.585938-9.238281-8.535157-12.011719-8.535157-2.753906 0-8.109375 4.949219-12.011719 8.578126-5.523437 5.097656-11.777343 10.898437-19.519531 13.246093-7.746093 2.347657-15.722656.894531-23.507812-.511719-5.589844-.980468-12.503907-2.238281-15.148438-.660156-2.238281 1.34375-4.457031 8.042969-6.078125 12.949219-2.496094 7.53125-5.355468 16.0625-11.648437 22.035156-6.101563 5.761719-14.679688 7.980469-22.210938 9.921875-5.4375 1.40625-12.199219 3.15625-14.035156 5.652344-1.601563 2.175781-1.214844 9.152344-.960937 14.273438.425781 8.085937.894531 17.257812-3.070313 25.214843-3.820313 7.660157-11.265625 12.652344-17.855469 17.066407-4.632812 3.113281-10.390625 6.976562-11.328125 9.921874-.8125 2.601563 1.621094 8.851563 3.5625 13.863282 2.941407 7.574218 6.269531 16.171875 4.925781 25.003906-1.28125 8.511719-6.910156 15.574219-11.882812 21.804688-3.457031 4.351562-7.765625 9.769531-7.765625 12.839843 0 3.09375 4.332031 8.511719 7.789063 12.867188 4.96875 6.226562 10.601562 13.265625 11.882812 21.800781 1.320312 8.8125-2.007812 17.40625-4.929688 25.003906-1.941406 5.011719-4.375 11.261719-3.542968 13.867188.917968 2.921875 6.65625 6.78125 11.308594 9.875 6.59375 4.417968 14.039062 9.410156 17.878906 17.089844 3.945312 7.933593 3.453125 17.085937 3.050781 25.195312-.257813 5.097656-.621094 12.09375.957031 14.269531 1.816406 2.496094 8.578125 4.246094 14.015625 5.652344 7.554688 1.941406 16.109375 4.140625 22.210938 9.921875 6.292969 5.953125 9.152343 14.507812 11.648437 22.058594 1.621094 4.886718 3.839844 11.5625 6.058594 12.929687 2.621094 1.621094 9.597656.359375 15.167969-.664062 4.753906-.851563 9.621093-1.726563 14.484375-1.726563zm0 0"/><path d="m132.933594 426.667969c-10.21875 0-19.648438-4.714844-25.8125-12.929688-.019532 0-.019532 0-.019532 0-21.699218-28.925781-34.136718-78.65625-34.136718-136.382812 0-57.730469 12.4375-107.457031 34.136718-136.386719 12.371094-16.46875 39.335938-16.445312 51.667969 0 21.632813 28.824219 21.289063 72.707031 20.949219 119.191406l-.085938 17.171875.085938 17.21875c.339844 46.460938.660156 90.34375-20.929688 119.167969-6.207031 8.234375-15.613281 12.949219-25.855468 12.949219zm-8.765625-25.75c4.203125 5.632812 13.289062 5.609375 17.535156 0 17.28125-23.0625 16.980469-63.445313 16.660156-106.21875l-.0625-17.367188.085938-17.34375c.320312-42.773437.597656-83.15625-16.683594-106.21875-4.203125-5.589843-13.292969-5.632812-17.535156 0-18.710938 24.917969-29.867188 71.105469-29.867188 123.5625 0 52.4375 11.15625 98.648438 29.867188 123.585938zm0 0"/><path d="m247.664062 426.667969c-10.238281 0-19.667968-4.714844-25.832031-12.929688-21.632812-28.84375-21.292969-72.726562-20.949219-119.1875l.082032-17.21875-.082032-17.195312c-.34375-46.484375-.664062-90.367188 20.925782-119.167969 12.351562-16.445312 39.316406-16.46875 51.671875 0 21.714843 28.929688 34.152343 78.65625 34.152343 136.386719 0 57.726562-12.4375 107.457031-34.132812 136.382812 0 0 0 0-.019531 0-6.167969 8.214844-15.574219 12.929688-25.816407 12.929688zm17.300782-19.351563h.214844zm-17.300782-257.984375c-3.476562 0-6.65625 1.601563-8.789062 4.417969-17.277344 23.0625-16.980469 63.445312-16.660156 106.21875l.085937 17.363281-.085937 17.367188c-.320313 42.773437-.597656 83.15625 16.683594 106.21875 4.179687 5.609375 13.289062 5.632812 17.511718 0 18.710938-24.9375 29.867188-71.148438 29.867188-123.585938s-11.15625-98.644531-29.867188-123.582031c-2.089844-2.816406-5.265625-4.417969-8.746094-4.417969zm0 0"/><path d="m190.300781 64c-5.890625 0-10.667969-4.777344-10.667969-10.667969v-42.664062c0-5.890625 4.777344-10.667969 10.667969-10.667969 5.886719 0 10.664063 4.777344 10.664063 10.667969v42.664062c0 5.890625-4.777344 10.667969-10.664063 10.667969zm0 0"/></svg>