<svg height="512pt" viewBox="-75 0 512 512" width="512pt" xmlns="http://www.w3.org/2000/svg"><g fill="#3f51b5"><path d="m96 202.667969c0 23.5625-19.101562 42.664062-42.667969 42.664062-23.5625 0-42.664062-19.101562-42.664062-42.664062 0-23.566407 19.101562-42.667969 42.664062-42.667969 23.566407 0 42.667969 19.101562 42.667969 42.667969zm0 0"/><path d="m181.332031 202.667969c0 23.5625-19.101562 42.664062-42.664062 42.664062-23.566407 0-42.667969-19.101562-42.667969-42.664062 0-23.566407 19.101562-42.667969 42.667969-42.667969 23.5625 0 42.664062 19.101562 42.664062 42.667969zm0 0"/><path d="m266.667969 202.667969c0 23.5625-19.105469 42.664062-42.667969 42.664062s-42.667969-19.101562-42.667969-42.664062c0-23.566407 19.105469-42.667969 42.667969-42.667969s42.667969 19.101562 42.667969 42.667969zm0 0"/><path d="m352 202.667969c0 23.5625-19.101562 42.664062-42.667969 42.664062-23.5625 0-42.664062-19.101562-42.664062-42.664062 0-23.566407 19.101562-42.667969 42.664062-42.667969 23.566407 0 42.667969 19.101562 42.667969 42.667969zm0 0"/><path d="m309.332031 288c0 23.5625-19.101562 42.667969-42.664062 42.667969-23.566407 0-42.667969-19.105469-42.667969-42.667969s19.101562-42.667969 42.667969-42.667969c23.5625 0 42.664062 19.105469 42.664062 42.667969zm0 0"/><path d="m266.667969 373.332031c0 23.566407-19.105469 42.667969-42.667969 42.667969s-42.667969-19.101562-42.667969-42.667969c0-23.5625 19.105469-42.664062 42.667969-42.664062s42.667969 19.101562 42.667969 42.664062zm0 0"/><path d="m224 458.667969c0 23.5625-19.101562 42.664062-42.667969 42.664062-23.5625 0-42.664062-19.101562-42.664062-42.664062 0-23.566407 19.101562-42.667969 42.664062-42.667969 23.566407 0 42.667969 19.101562 42.667969 42.667969zm0 0"/><path d="m181.332031 373.332031c0 23.566407-19.101562 42.667969-42.664062 42.667969-23.566407 0-42.667969-19.101562-42.667969-42.667969 0-23.5625 19.101562-42.664062 42.667969-42.664062 23.5625 0 42.664062 19.101562 42.664062 42.664062zm0 0"/><path d="m224 288c0 23.5625-19.101562 42.667969-42.667969 42.667969-23.5625 0-42.664062-19.105469-42.664062-42.667969s19.101562-42.667969 42.664062-42.667969c23.566407 0 42.667969 19.105469 42.667969 42.667969zm0 0"/><path d="m138.667969 288c0 23.5625-19.105469 42.667969-42.667969 42.667969s-42.667969-19.105469-42.667969-42.667969 19.105469-42.667969 42.667969-42.667969 42.667969 19.105469 42.667969 42.667969zm0 0"/></g><path d="m53.332031 256c-29.417969 0-53.332031-23.9375-53.332031-53.332031 0-29.398438 23.914062-53.335938 53.332031-53.335938 29.421875 0 53.335938 23.9375 53.335938 53.335938 0 29.394531-23.914063 53.332031-53.335938 53.332031zm0-85.332031c-17.640625 0-32 14.355469-32 32 0 17.640625 14.359375 32 32 32 17.644531 0 32-14.359375 32-32 0-17.644531-14.355469-32-32-32zm0 0"/><path d="m138.667969 256c-29.421875 0-53.335938-23.9375-53.335938-53.332031 0-29.398438 23.914063-53.335938 53.335938-53.335938 29.417969 0 53.332031 23.9375 53.332031 53.335938 0 29.394531-23.914062 53.332031-53.332031 53.332031zm0-85.332031c-17.644531 0-32 14.355469-32 32 0 17.640625 14.355469 32 32 32 17.640625 0 32-14.359375 32-32 0-17.644531-14.359375-32-32-32zm0 0"/><path d="m224 256c-29.417969 0-53.332031-23.9375-53.332031-53.332031 0-29.398438 23.914062-53.335938 53.332031-53.335938s53.332031 23.9375 53.332031 53.335938c0 29.394531-23.914062 53.332031-53.332031 53.332031zm0-85.332031c-17.644531 0-32 14.355469-32 32 0 17.640625 14.355469 32 32 32s32-14.359375 32-32c0-17.644531-14.355469-32-32-32zm0 0"/><path d="m309.332031 256c-29.417969 0-53.332031-23.9375-53.332031-53.332031 0-29.398438 23.914062-53.335938 53.332031-53.335938 29.421875 0 53.335938 23.9375 53.335938 53.335938 0 29.394531-23.914063 53.332031-53.335938 53.332031zm0-85.332031c-17.640625 0-32 14.355469-32 32 0 17.640625 14.359375 32 32 32 17.644531 0 32-14.359375 32-32 0-17.644531-14.355469-32-32-32zm0 0"/><path d="m266.667969 341.332031c-29.421875 0-53.335938-23.933593-53.335938-53.332031s23.914063-53.332031 53.335938-53.332031c29.417969 0 53.332031 23.933593 53.332031 53.332031s-23.914062 53.332031-53.332031 53.332031zm0-85.332031c-17.644531 0-32 14.355469-32 32s14.355469 32 32 32c17.640625 0 32-14.355469 32-32s-14.359375-32-32-32zm0 0"/><path d="m224 426.667969c-29.417969 0-53.332031-23.9375-53.332031-53.335938 0-29.394531 23.914062-53.332031 53.332031-53.332031s53.332031 23.9375 53.332031 53.332031c0 29.398438-23.914062 53.335938-53.332031 53.335938zm0-85.335938c-17.644531 0-32 14.359375-32 32 0 17.644531 14.355469 32 32 32s32-14.355469 32-32c0-17.640625-14.355469-32-32-32zm0 0"/><path d="m181.332031 512c-29.417969 0-53.332031-23.9375-53.332031-53.332031 0-29.398438 23.914062-53.335938 53.332031-53.335938 29.421875 0 53.335938 23.9375 53.335938 53.335938 0 29.394531-23.914063 53.332031-53.335938 53.332031zm0-85.332031c-17.640625 0-32 14.355469-32 32 0 17.640625 14.359375 32 32 32 17.644531 0 32-14.359375 32-32 0-17.644531-14.355469-32-32-32zm0 0"/><path d="m138.667969 426.667969c-29.421875 0-53.335938-23.9375-53.335938-53.335938 0-29.394531 23.914063-53.332031 53.335938-53.332031 29.417969 0 53.332031 23.9375 53.332031 53.332031 0 29.398438-23.914062 53.335938-53.332031 53.335938zm0-85.335938c-17.644531 0-32 14.359375-32 32 0 17.644531 14.355469 32 32 32 17.640625 0 32-14.355469 32-32 0-17.640625-14.359375-32-32-32zm0 0"/><path d="m181.332031 341.332031c-29.417969 0-53.332031-23.933593-53.332031-53.332031s23.914062-53.332031 53.332031-53.332031c29.421875 0 53.335938 23.933593 53.335938 53.332031s-23.914063 53.332031-53.335938 53.332031zm0-85.332031c-17.640625 0-32 14.355469-32 32s14.359375 32 32 32c17.644531 0 32-14.355469 32-32s-14.355469-32-32-32zm0 0"/><path d="m96 341.332031c-29.417969 0-53.332031-23.933593-53.332031-53.332031s23.914062-53.332031 53.332031-53.332031 53.332031 23.933593 53.332031 53.332031-23.914062 53.332031-53.332031 53.332031zm0-85.332031c-17.644531 0-32 14.355469-32 32s14.355469 32 32 32 32-14.355469 32-32-14.355469-32-32-32zm0 0"/><path d="m181.332031 181.332031c-5.886719 0-10.664062-4.777343-10.664062-10.664062 0-40.042969 5.375-170.667969 74.664062-170.667969 5.890625 0 10.667969 4.777344 10.667969 10.667969 0 5.886719-4.777344 10.664062-10.667969 10.664062-42.109375 0-53.332031 93.867188-53.332031 149.335938 0 5.886719-4.777344 10.664062-10.667969 10.664062zm0 0"/><path d="m307.433594 128.40625c-13.140625 0-29.203125-4.480469-45.203125-11.796875-3.242188 2.75-6.488281 5.609375-9.621094 8.53125-4.3125 4.011719-11.074219 3.796875-15.085937-.53125-4.007813-4.3125-3.773438-11.050781.535156-15.085937 1.128906-1.042969 2.476562-2.300782 4.011718-3.6875-21.65625-13.25-40.703124-30.722657-49.023437-47.875-2.5625-5.308594-.363281-11.667969 4.949219-14.25 5.3125-2.515626 11.667968-.363282 14.25 4.949218 7.082031 14.613282 26.496094 30.933594 47.210937 42.625 20.414063-15.808594 48.617188-33.023437 66.582031-25.214844 6.996094 3.050782 15.292969 10.707032 15.292969 29.929688 0 16.449219-8.640625 27.882812-23.699219 31.339844-3.15625.703125-6.550781 1.066406-10.199218 1.066406zm-25.898438-26.6875c12.183594 4.585938 23.382813 6.65625 31.316406 4.839844 4.523438-1.066406 7.148438-3.113282 7.148438-10.558594 0-6.804688-1.449219-9.921875-2.433594-10.347656-5.074218-2.238282-19.539062 4.585937-36.03125 16.066406zm0 0"/></svg>