<svg height="490pt" viewBox="0 -117 490.66667 490" width="490pt" xmlns="http://www.w3.org/2000/svg"><path d="m10.667969.332031v10.667969c0 129.601562 105.066406 234.667969 234.664062 234.667969 129.601563 0 234.667969-105.066407 234.667969-234.667969v-10.667969zm0 0" fill="#cddc39"/><path d="m106.667969.332031v10.667969c0 76.457031 62.207031 138.667969 138.664062 138.667969 76.460938 0 138.667969-62.210938 138.667969-138.667969v-10.667969zm0 0" fill="#ff9800"/><path d="m245.332031 256.332031c-135.273437 0-245.332031-110.058593-245.332031-245.332031 0-5.886719 4.777344-10.667969 10.667969-10.667969h106.664062c5.890625 0 10.667969 4.78125 10.667969 10.667969 0 64.703125 52.628906 117.332031 117.332031 117.332031 64.707031 0 117.335938-52.628906 117.335938-117.332031 0-5.886719 4.777343-10.667969 10.664062-10.667969h106.667969c5.886719 0 10.667969 4.78125 10.667969 10.667969 0 135.273438-110.058594 245.332031-245.335938 245.332031zm-223.742187-234.664062c5.566406 118.589843 103.808594 213.332031 223.742187 213.332031 119.9375 0 218.175781-94.742188 223.746094-213.332031h-85.484375c-5.460938 71.507812-65.386719 128-138.261719 128s-132.796875-56.492188-138.261719-128zm0 0"/><path d="m394.667969 21.667969h-298.667969c-5.886719 0-10.667969-4.78125-10.667969-10.667969s4.78125-10.667969 10.667969-10.667969h298.667969c5.886719 0 10.664062 4.78125 10.664062 10.667969s-4.777343 10.667969-10.664062 10.667969zm0 0"/><path d="m170.667969 64.332031c-2.730469 0-5.460938-1.042969-7.554688-3.113281-4.160156-4.160156-4.160156-10.921875 0-15.082031l10.667969-10.667969c4.160156-4.160156 10.921875-4.160156 15.082031 0 4.160157 4.160156 4.160157 10.921875 0 15.082031l-10.664062 10.667969c-2.070313 2.070312-4.800781 3.113281-7.53125 3.113281zm0 0"/><path d="m213.332031 75c-5.886719 0-10.664062-4.777344-10.664062-10.667969v-10.664062c0-5.890625 4.777343-10.667969 10.664062-10.667969 5.890625 0 10.667969 4.777344 10.667969 10.667969v10.664062c0 5.890625-4.777344 10.667969-10.667969 10.667969zm0 0"/><path d="m288 96.332031c-2.730469 0-5.460938-1.042969-7.550781-3.113281l-10.667969-10.667969c-4.160156-4.160156-4.160156-10.921875 0-15.082031s10.921875-4.160156 15.082031 0l10.667969 10.667969c4.160156 4.160156 4.160156 10.921875 0 15.082031-2.070312 2.070312-4.800781 3.113281-7.53125 3.113281zm0 0"/><path d="m224 117.667969c-2.730469 0-5.460938-1.046875-7.550781-3.117188-4.160157-4.160156-4.160157-10.921875 0-15.082031l10.664062-10.667969c4.160157-4.15625 10.925781-4.15625 15.085938 0 4.15625 4.160157 4.15625 10.925781 0 15.085938l-10.667969 10.664062c-2.070312 2.070313-4.800781 3.117188-7.53125 3.117188zm0 0"/><path d="m266.667969 53.667969c-5.890625 0-10.667969-4.78125-10.667969-10.667969v-10.667969c0-5.886719 4.777344-10.664062 10.667969-10.664062 5.886719 0 10.664062 4.777343 10.664062 10.664062v10.667969c0 5.886719-4.777343 10.667969-10.664062 10.667969zm0 0"/><path d="m330.667969 64.332031c-2.730469 0-5.460938-1.042969-7.554688-3.113281l-10.664062-10.667969c-4.160157-4.160156-4.160157-10.921875 0-15.082031 4.160156-4.160156 10.921875-4.160156 15.082031 0l10.667969 10.667969c4.15625 4.160156 4.15625 10.921875 0 15.082031-2.070313 2.070312-4.800781 3.113281-7.53125 3.113281zm0 0"/></svg>