<svg height="512pt" viewBox="0 -21 512.02133 512" width="512pt" xmlns="http://www.w3.org/2000/svg"><path d="m298.667969.0117188c-93.015625 0-174.550781 44.6289062-202.902344 111.0195312-1.921875 4.5-.535156 9.703125 3.347656 12.671875l247.488281 188.734375c1.878907 1.429688 4.160157 2.195312 6.464844 2.195312.726563 0 1.429688-.0625 2.15625-.210937 92.308594-18.988281 156.796875-82.390625 156.796875-154.21875-.019531-88.339844-95.722656-160.1914062-213.351562-160.1914062zm0 0" fill="#8d6e63"/><path d="m339.09375 296.800781c-.894531-5.078125-5.332031-8.789062-10.496094-8.789062-5.164062 0-9.601562 3.710937-10.496094 8.789062-11.070312 61.867188-74.453124 108.542969-147.433593 108.542969-72.984375 0-136.363281-46.675781-147.414063-108.542969-.917968-5.078125-5.332031-8.789062-10.496094-8.789062-5.164062 0-9.578124 3.710937-10.496093 8.789062-1.535157 8.640625-2.261719 16.019531-2.261719 23.210938 0 82.324219 76.566406 149.332031 170.667969 149.332031 94.101562 0 170.664062-67.007812 170.664062-149.332031 0-7.191407-.722656-14.570313-2.238281-23.210938zm0 0" fill="#a1887f"/><path d="m330.667969 277.34375c0-76.582031-71.636719-138.667969-160-138.667969-88.367188 0-160 62.085938-160 138.667969s71.632812 138.667969 160 138.667969c88.363281 0 160-62.085938 160-138.667969zm0 0" fill="#8bc34a"/><path d="m170.667969 426.675781c-94.101563 0-170.667969-67.007812-170.667969-149.332031s76.566406-149.332031 170.667969-149.332031c94.101562 0 170.664062 67.007812 170.664062 149.332031s-76.5625 149.332031-170.664062 149.332031zm0-277.332031c-82.347657 0-149.335938 57.410156-149.335938 128 0 70.59375 66.988281 128 149.335938 128 82.34375 0 149.332031-57.40625 149.332031-128 0-70.589844-66.988281-128-149.332031-128zm0 0" fill="#a1887f"/><g fill="#455a64"><path d="m170.667969 170.675781c-12.375 0-21.335938 13.460938-21.335938 32 0 16.109375 12.78125 27.992188 14.230469 29.292969 2.027344 1.8125 4.566406 2.707031 7.105469 2.707031 2.539062 0 5.074219-.894531 7.101562-2.707031 1.453125-1.300781 14.230469-13.183594 14.230469-29.292969 0-18.539062-8.960938-32-21.332031-32zm0 0"/><path d="m163.5625 322.71875c-1.449219 1.300781-14.230469 13.183594-14.230469 29.292969 0 18.539062 8.960938 32 21.335938 32 12.371093 0 21.332031-13.460938 21.332031-32 0-16.109375-12.777344-27.992188-14.230469-29.292969-4.050781-3.625-10.152343-3.625-14.207031 0zm0 0"/><path d="m266.667969 256.011719c-16.085938 0-27.992188 12.777343-29.292969 14.207031-3.625 4.054688-3.625 10.195312 0 14.25 1.300781 1.429688 13.207031 14.207031 29.292969 14.207031 18.539062 0 32-8.980469 32-21.332031s-13.460938-21.332031-32-21.332031zm0 0"/><path d="m103.957031 270.21875c-1.300781-1.429688-13.203125-14.207031-29.289062-14.207031-18.539063 0-32 8.980469-32 21.332031s13.460937 21.332031 32 21.332031c16.085937 0 27.988281-12.777343 29.289062-14.207031 3.605469-4.054688 3.605469-10.195312 0-14.25zm0 0"/><path d="m218.113281 239.945312c.277344.023438.875.042969 1.726563.042969 5.078125 0 19.285156-.9375 29.035156-10.6875 13.097656-13.097656 16.277344-28.96875 7.550781-37.714843-3.199219-3.203126-7.53125-4.910157-12.480469-4.910157-8 0-17.429687 4.671875-25.214843 12.460938-11.371094 11.371093-10.75 28.820312-10.644531 30.742187.253906 5.4375 4.585937 9.769532 10.027343 10.066406zm0 0"/><path d="m123.222656 314.742188c-1.964844-.109376-19.394531-.726563-30.765625 10.644531-13.097656 13.097656-16.277343 28.96875-7.550781 37.71875 3.199219 3.199219 7.53125 4.90625 12.480469 4.90625 8 0 17.429687-4.671875 25.214843-12.460938 11.371094-11.371093 10.753907-28.820312 10.644532-30.738281-.253906-5.441406-4.585938-9.773438-10.023438-10.070312zm0 0"/><path d="m218.113281 314.742188c-5.421875.296874-9.773437 4.628906-10.050781 10.070312-.105469 1.941406-.722656 19.367188 10.648438 30.738281 7.785156 7.789063 17.214843 12.460938 25.214843 12.460938 4.96875 0 9.28125-1.707031 12.480469-4.90625 8.746094-8.726563 5.566406-24.597657-7.53125-37.71875-11.371094-11.371094-28.777344-10.730469-30.761719-10.644531zm0 0"/><path d="m97.40625 186.675781c-4.96875 0-9.300781 1.707031-12.476562 4.910157-8.75 8.722656-5.570313 24.59375 7.527343 37.714843 9.75 9.75 23.980469 10.6875 29.058594 10.6875.851563 0 1.429687-.019531 1.726563-.042969 5.417968-.296874 9.769531-4.628906 10.046874-10.066406.109376-1.941406.726563-19.371094-10.644531-30.742187-7.808593-7.789063-17.238281-12.460938-25.238281-12.460938zm0 0"/></g><path d="m170.667969 234.675781c-2.539063 0-5.101563-.894531-7.105469-2.707031-1.472656-1.300781-14.230469-13.207031-14.230469-29.292969 0-18.539062 8.960938-32 21.335938-32 12.371093 0 21.332031 13.460938 21.332031 32 0 16.085938-12.757812 27.992188-14.230469 29.292969-2.003906 1.8125-4.5625 2.707031-7.101562 2.707031zm0 0"/><path d="m170.667969 384.011719c-12.375 0-21.335938-13.460938-21.335938-32 0-16.109375 12.78125-27.992188 14.230469-29.292969 4.054688-3.625 10.175781-3.625 14.230469 0 1.429687 1.300781 14.207031 13.183594 14.207031 29.292969 0 18.539062-8.960938 32-21.332031 32zm2.773437-20.460938h.210938zm0 0"/><path d="m266.667969 298.675781c-16.085938 0-27.992188-12.777343-29.292969-14.207031-3.625-4.054688-3.625-10.195312 0-14.25 1.300781-1.429688 13.207031-14.207031 29.292969-14.207031 18.539062 0 32 8.980469 32 21.332031s-13.460938 21.332031-32 21.332031zm0-21.332031h.210937zm0 0"/><path d="m74.667969 298.675781c-18.539063 0-32-8.980469-32-21.332031s13.460937-21.332031 32-21.332031c16.085937 0 27.988281 12.777343 29.289062 14.207031 3.628907 4.054688 3.628907 10.195312 0 14.25-1.300781 1.429688-13.203125 14.207031-29.289062 14.207031zm0-21.332031h.210937zm0 0"/><path d="m219.820312 240.011719c-.855468 0-1.429687-.023438-1.730468-.042969-5.417969-.300781-9.769532-4.628906-10.046875-10.046875-.105469-1.964844-.726563-19.394531 10.644531-30.765625 7.789062-7.785156 17.214844-12.4375 25.214844-12.4375 4.972656 0 9.28125 1.707031 12.480468 4.90625 3.203126 3.179688 4.886719 7.511719 4.886719 12.460938 0 8-4.652343 17.429687-12.4375 25.238281-9.726562 9.746093-23.9375 10.6875-29.011719 10.6875zm0 0"/><path d="m97.40625 368.011719c-4.96875 0-9.300781-1.707031-12.5-4.90625-8.726562-8.726563-5.566406-24.597657 7.550781-37.71875 11.371094-11.371094 28.824219-10.753907 30.765625-10.644531 5.417969.296874 9.769532 4.628906 10.046875 10.070312.105469 1.941406.726563 19.367188-10.644531 30.738281-7.789062 7.789063-17.21875 12.460938-25.21875 12.460938zm3.949219-17.410157h.210937zm-1.34375-17.683593h.210937zm0 0"/><path d="m243.925781 368.011719c-8 0-17.429687-4.671875-25.214843-12.460938-11.371094-11.371093-10.753907-28.820312-10.648438-30.738281.300781-5.441406 4.628906-9.773438 10.050781-10.070312 2.023438-.109376 19.410157-.703126 30.761719 10.644531 13.097656 13.097656 16.277344 28.96875 7.53125 37.71875-3.199219 3.199219-7.511719 4.90625-12.480469 4.90625zm0 0"/><path d="m121.515625 240.011719c-5.078125 0-19.308594-.917969-29.058594-10.6875-7.785156-7.808594-12.4375-17.238281-12.4375-25.238281 0-4.972657 1.707031-9.28125 4.910157-12.480469 3.175781-3.199219 7.507812-4.886719 12.457031-4.886719 8 0 17.40625 4.652344 25.214843 12.4375 11.371094 11.371094 10.753907 28.800781 10.644532 30.765625-.296875 5.417969-4.628906 9.769531-10.046875 10.046875-.253907.019531-.851563.042969-1.683594.042969zm1.128906-10.6875h.214844zm0 0"/><path d="m170.667969 469.34375c-94.101563 0-170.667969-67.007812-170.667969-149.332031 0-7.191407.726562-14.570313 2.238281-23.210938.898438-5.078125 5.335938-8.789062 10.496094-8.789062 5.164063 0 9.601563 3.710937 10.496094 8.789062 11.074219 61.867188 74.453125 108.542969 147.4375 108.542969 72.980469 0 136.363281-46.675781 147.410156-108.542969.898437-5.078125 5.335937-8.789062 10.496094-8.789062 5.164062 0 9.582031 3.710937 10.496093 8.789062 1.539063 8.640625 2.261719 16.019531 2.261719 23.210938 0 82.324219-76.5625 149.332031-170.664062 149.332031zm-141.441407-108.265625c20.011719 50.496094 75.839844 86.933594 141.441407 86.933594 65.597656 0 121.429687-36.4375 141.4375-86.933594-30.738281 40.0625-82.773438 65.597656-141.4375 65.597656-58.667969 0-110.699219-25.535156-141.441407-65.597656zm0 0"/><path d="m371.667969 310.046875c-4.628907 0-8.894531-3.070313-10.238281-7.742187-1.621094-5.675782 1.664062-11.5625 7.339843-13.164063 72.914063-20.800781 121.898438-72.617187 121.898438-128.9375 0-76.566406-86.144531-138.859375-192-138.859375-73.707031 0-141.804688 31.316406-173.460938 79.785156-3.203125 4.949219-9.792969 6.316406-14.765625 3.09375-4.949218-3.21875-6.335937-9.832031-3.09375-14.761718 36.054688-55.167969 109.355469-89.4492192 191.320313-89.4492192 117.628906 0 213.332031 71.8710932 213.332031 160.1914062 0 66.984375-53.929688 125.652344-137.386719 149.441406-.980469.277344-1.984375.402344-2.945312.402344zm0 0"/><path d="m170.667969 426.675781c-94.101563 0-170.667969-67.007812-170.667969-149.332031 0-82.347656 76.566406-149.332031 170.667969-149.332031 94.101562 0 170.664062 66.984375 170.664062 149.332031 0 82.324219-76.5625 149.332031-170.664062 149.332031zm0-277.332031c-82.347657 0-149.335938 57.410156-149.335938 128 0 70.59375 66.988281 128 149.335938 128 82.34375 0 149.332031-57.40625 149.332031-128 0-70.589844-66.988281-128-149.332031-128zm0 0"/><path d="m447.1875 187.230469c-2.238281 0-4.5-.703125-6.417969-2.152344-8.832031-6.679687-14.101562-17.386719-14.101562-28.652344 0-11.261719 5.269531-21.972656 14.101562-28.671875 4.691407-3.539062 11.390625-2.625 14.953125 2.070313 3.5625 4.691406 2.625 11.390625-2.070312 14.953125-3.539063 2.667968-5.652344 7.019531-5.652344 11.648437 0 4.609375 2.113281 8.960938 5.652344 11.628907 4.695312 3.5625 5.632812 10.238281 2.070312 14.953124-2.113281 2.773438-5.289062 4.222657-8.535156 4.222657zm0 0"/></svg>