<svg height="490pt" viewBox="0 -85 490.688 490" width="490pt" xmlns="http://www.w3.org/2000/svg"><path d="m472.683594 146.691406c-2.964844-1.515625-4.949219-4.289062-5.632813-7.871094-14.742187-78.933593-110.082031-138.476562-221.71875-138.476562-105.449219 0-197.589843 53.417969-219.050781 126.996094-.617188 2.09375-2.21875 5.867187-6.121094 7.640625-12.800781 5.820312-20.160156 15.082031-20.160156 25.363281s7.359375 19.542969 20.179688 25.367188c3.882812 1.769531 5.484374 5.523437 6.082031 7.613281 21.480469 73.601562 113.621093 127.019531 219.070312 127.019531 99.949219 0 188.589844-47.808594 215.554688-116.246094.679687-1.707031 2.28125-4.757812 5.546875-5.949218 15.402344-5.71875 24.234375-15.597657 24.234375-27.117188 0-5.675781-2.328125-16.363281-17.984375-24.339844zm0 0" fill="#ffc107"/><path d="m245.332031 320.34375c-105.46875 0-197.589843-53.417969-219.070312-126.996094-.617188-2.089844-2.21875-5.867187-6.101563-7.617187-12.800781-5.824219-20.160156-15.082031-20.160156-25.386719s7.359375-19.5625 20.179688-25.363281c3.863281-1.75 5.464843-5.527344 6.082031-7.617188 21.460937-73.601562 113.601562-127.019531 219.070312-127.019531 111.636719 0 206.976563 59.542969 221.738281 138.496094.664063 3.5625 2.667969 6.359375 5.632813 7.871094 15.636719 7.980468 17.984375 18.644531 17.984375 24.300781 0 11.539062-8.832031 21.4375-24.253906 27.113281-3.222656 1.214844-4.84375 4.222656-5.503906 5.929688-27.007813 68.480468-115.648438 116.289062-215.597657 116.289062zm0-298.667969c-96.191406 0-179.710937 46.957031-198.589843 111.640625-2.773438 9.535156-9.257813 17.214844-17.75 21.074219-6.25 2.839844-7.660157 5.570313-7.660157 5.953125s1.410157 3.113281 7.660157 5.929688c8.492187 3.882812 14.976562 11.5625 17.75 21.101562 18.878906 64.679688 102.398437 111.636719 198.589843 111.636719 91.394531 0 171.882813-42.242188 195.734375-102.765625 3.371094-8.511719 9.921875-15.125 17.941406-18.109375 7.851563-2.902344 10.324219-6.402344 10.324219-7.125 0-.320313-1.171875-2.667969-6.335937-5.3125-8.851563-4.5-15.015625-12.886719-16.894532-22.957031-12.90625-69.011719-99.222656-121.066407-200.769531-121.066407zm0 0"/><path d="m96 120.558594c-2.515625 0-5.035156-.898438-7.0625-2.667969-4.4375-3.902344-4.839844-10.644531-.9375-15.0625 32.617188-36.90625 92.90625-59.816406 157.332031-59.816406 5.890625 0 10.667969 4.777343 10.667969 10.664062 0 5.890625-4.777344 10.667969-10.667969 10.667969-57.597656 0-113.085937 20.652344-141.351562 52.609375-2.113281 2.386719-5.035157 3.605469-7.980469 3.605469zm0 0"/></svg>