<svg height="512pt" viewBox="-11 0 512 512.00496" width="512pt" xmlns="http://www.w3.org/2000/svg"><path d="m488.640625 153.15625c-78.230469-93.375-188.671875-135.59375-288.148437-110.144531-3.074219.789062-5.632813 2.902343-7 5.761719-1.363282 2.859374-1.386719 6.1875-.019532 9.042968 44.863282 96.769532 163.136719 103.320313 233.832032 107.222656 21.355468 1.195313 39.808593 2.21875 50.21875 5.207032.960937.296875 1.964843.425781 2.945312.425781 3.542969 0 6.933594-1.769531 8.9375-4.863281 2.5625-3.925782 2.242188-9.066406-.765625-12.652344zm0 0" fill="#4caf50"/><path d="m204.566406 106.757812c-58.839844-8.042968-109.398437 5.824219-146.519531 40.167969-40.511719 37.503907-61.503906 96.917969-57.554687 163.03125 1.105468 18.6875 4.328124 41.40625 10.835937 75.988281 5.398437 28.886719 9.023437 55.402344 10.496094 76.671876 1.003906 14.125 7.574219 27.03125 18.582031 36.308593 9.984375 8.449219 22.78125 13.078125 35.816406 13.078125 1.773438 0 3.542969-.085937 5.3125-.253906 215.636719-21.207031 238.933594-178.453125 238.933594-245.078125 0-85.332031-61.078125-152.746094-115.902344-159.914063zm0 0" fill="#4caf50"/><path d="m76.222656 512.003906c-13.035156 0-25.832031-4.628906-35.816406-13.054687-11.007812-9.300781-17.601562-22.1875-18.605469-36.308594-1.875-27.222656-6.761719-56.703125-10.496093-76.652344-4.308594-22.933593-9.40625-52.289062-10.835938-76.011719-3.925781-66.109374 17.066406-125.546874 57.578125-163.050781 37.121094-34.34375 87.828125-48.210937 146.496094-40.167969 54.828125 7.167969 115.90625 74.582032 115.90625 159.914063 0 66.625-23.277344 223.871094-238.914063 245.078125-1.769531.167969-3.539062.253906-5.3125.253906zm96.746094-386.132812c-39.914062 0-74.238281 12.460937-100.4375 36.714844-35.816406 33.152343-54.3125 86.398437-50.773438 146.132812 1.347657 22.527344 6.316407 51.03125 10.496094 73.34375 3.863282 20.503906 8.875 50.859375 10.839844 79.082031.574219 8.34375 4.5 15.980469 11.070312 21.527344 6.976563 5.910156 16.277344 8.894531 25.28125 7.851563 191.125-18.773438 219.667969-148.289063 219.667969-223.832032 0-74.324218-51.304687-132.777344-97.363281-138.75-.023438 0-.042969 0-.085938 0-9.855468-1.386718-19.414062-2.070312-28.695312-2.070312zm0 0"/><path d="m162.152344 448.027344c-4.199219 0-8.167969-2.496094-9.875-6.636719-2.21875-5.460937.382812-11.691406 5.824218-13.910156 23.894532-9.769531 43.648438-23.230469 58.707032-39.957031 26.285156-29.183594 39.617187-69.84375 39.617187-120.851563 0-5.886719 4.777344-10.667969 10.667969-10.667969 5.886719 0 10.664062 4.78125 10.664062 10.667969 0 56.449219-15.167968 101.910156-45.097656 135.144531-17.238281 19.117188-39.613281 34.414063-66.496094 45.421875-1.300781.53125-2.664062.789063-4.011718.789063zm0 0"/><path d="m203.113281 128.003906c-5.011719 0-9.492187-3.539062-10.453125-8.640625-1.320312-6.847656-1.066406-16.167969-.746094-27.988281.703126-24.382812 1.75-61.203125-15.59375-71.53125-5.058593-3.027344-6.722656-9.578125-3.691406-14.632812 3.007813-5.054688 9.558594-6.71875 14.613282-3.710938 28.097656 16.746094 26.878906 59.347656 26.003906 90.472656-.277344 9.664063-.53125 18.796875.34375 23.316406 1.128906 5.78125-2.667969 11.394532-8.449219 12.503907-.683594.148437-1.363281.210937-2.027344.210937zm0 0"/><path d="m480.449219 170.671875c-.984375 0-1.964844-.128906-2.945313-.425781-10.410156-2.988282-28.863281-4.011719-50.21875-5.207032-70.675781-3.882812-188.972656-10.429687-233.835937-107.222656-1.34375-2.855468-1.320313-6.183594.042969-9.042968 1.34375-2.859376 3.925781-4.972657 7-5.761719 99.496093-25.449219 209.898437 16.769531 288.148437 110.144531 3.007813 3.585938 3.328125 8.746094.765625 12.671875-2.023438 3.074219-5.417969 4.84375-8.957031 4.84375zm-261.421875-109.929687c43.5 73.832031 142.699218 79.335937 209.429687 83.027343 8.746094.492188 16.832031.9375 24.152344 1.492188-67.179687-68.03125-153.644531-99.5625-233.582031-84.519531zm0 0"/></svg>