<svg height="512pt" viewBox="-43 0 512 512.00022" width="512pt" xmlns="http://www.w3.org/2000/svg"><path d="m256 149.332031c-16.296875 0-32.425781 2.453125-48 7.296875-15.574219-4.84375-31.703125-7.296875-48-7.296875-91.222656 0-160 77.953125-160 181.335938 0 103.378906 68.777344 181.332031 160 181.332031 16.320312 0 32.449219-2.453125 48-7.296875 15.550781 4.84375 31.679688 7.296875 48 7.296875 94.101562 0 170.667969-81.34375 170.667969-181.332031 0-99.992188-76.566407-181.335938-170.667969-181.335938zm0 0" fill="#ff8a65"/><path d="m125.144531 45.519531c-33.84375-33.839843-69.546875-53-79.753906-42.792969-10.207031 10.203126 8.953125 45.910157 42.796875 79.753907 33.839844 33.839843 69.546875 53 79.75 42.792969 10.207031-10.203126-8.953125-45.910157-42.792969-79.753907zm0 0" fill="#4caf50"/><path d="m256 512c-16.339844 0-32.449219-2.453125-48-7.296875-15.550781 4.84375-31.660156 7.296875-48 7.296875-91.199219 0-160-77.953125-160-181.332031 0-103.382813 68.800781-181.335938 160-181.335938 16.296875 0 32.449219 2.453125 48 7.296875 15.550781-4.84375 31.703125-7.296875 48-7.296875 94.101562 0 170.667969 81.34375 170.667969 181.335938 0 99.988281-76.566407 181.332031-170.667969 181.332031zm-48-29.164062c1.152344 0 2.28125.195312 3.390625.554687 14.402344 4.824219 29.398437 7.277344 44.609375 7.277344 82.324219 0 149.332031-71.765625 149.332031-160s-67.007812-160-149.332031-160c-15.1875 0-30.1875 2.453125-44.609375 7.273437-2.21875.726563-4.585937.726563-6.78125 0-14.421875-4.820312-29.421875-7.273437-44.609375-7.273437-79.0625 0-138.667969 68.777343-138.667969 160 0 91.199219 59.605469 160 138.667969 160 15.210938 0 30.207031-2.453125 44.609375-7.277344 1.109375-.359375 2.238281-.554687 3.390625-.554687zm0 0"/><path d="m245.332031 277.332031c-5.886719 0-10.664062-4.777343-10.664062-10.664062 0-80.707031-26.242188-96-74.667969-96-5.886719 0-10.667969-4.78125-10.667969-10.667969s4.78125-10.667969 10.667969-10.667969c68.179688 0 96 33.984375 96 117.335938 0 5.886719-4.777344 10.664062-10.667969 10.664062zm0 0"/><path d="m202.667969 149.332031c-5.824219 0-10.582031-4.691406-10.667969-10.539062-.789062-65 26.859375-119.144531 70.441406-137.917969 5.398438-2.324219 11.714844.148438 14.015625 5.566406 2.328125 5.398438-.167969 11.691406-5.566406 14.015625-40.554687 17.472657-58.113281 71.894531-57.558594 118.082031.066407 5.886719-4.648437 10.730469-10.539062 10.792969-.039063 0-.082031 0-.125 0zm0 0"/><path d="m160 128c-77.011719 0-117.332031-59.027344-117.332031-117.332031 0-5.890625 4.777343-10.667969 10.664062-10.667969 77.015625 0 117.335938 59.03125 117.335938 117.332031 0 5.890625-4.78125 10.667969-10.667969 10.667969zm-95.425781-106.175781c4.183593 40 30.976562 79.464843 84.160156 84.332031-4.179687-40-30.953125-79.445312-84.160156-84.332031zm0 0"/></svg>