<svg height="511pt" viewBox="-53 0 511 511.35467" width="511pt" xmlns="http://www.w3.org/2000/svg"><path d="m401.835938 151.3125c-29.140626-25.324219-76.007813-28.863281-116.007813-25.921875 14.527344-16.574219 44.03125-33.363281 69.480469-41.171875 4.929687-1.515625 8.085937-6.355469 7.46875-11.476562-.621094-5.121094-4.84375-9.066407-9.984375-9.367188l-4.863281-.277344c-42.945313-2.453125-72.386719-4.117187-94.785157 10.667969-4.289062-14.398437-12.523437-25.109375-20.566406-35.5625-7.210937-9.386719-14.65625-19.09375-19.816406-32.105469-3.222657-8.128906-16.597657-8.128906-19.839844 0-5.164063 13.011719-12.609375 22.71875-19.820313 32.105469-8.042968 10.472656-16.277343 21.183594-20.566406 35.5625-22.378906-14.804687-51.796875-13.121094-94.78125-10.667969l-4.84375.277344c-5.164062.300781-9.367187 4.246094-10.007812 9.367188-.617188 5.121093 2.539062 9.960937 7.46875 11.476562 25.449218 7.808594 54.976562 24.597656 69.480468 41.171875-39.957031-2.898437-86.847656.621094-116.007812 25.921875-3.074219 2.667969-4.351562 6.847656-3.308594 10.773438 1.046875 3.925781 4.226563 6.933593 8.214844 7.722656 5.78125 1.152344 16.363281 2.515625 29.226562 4.136718 27.285157 3.457032 64.683594 8.214844 87.339844 15.167969 1.023438.320313 2.066406.472657 3.132813.472657l148.632812.039062c1.066407 0 2.132813-.148438 3.132813-.46875 22.613281-6.976562 60.054687-11.730469 87.402344-15.1875 12.886718-1.644531 23.488281-3.007812 29.292968-4.160156 3.988282-.789063 7.1875-3.796875 8.234375-7.722656 1.042969-3.925782-.234375-8.105469-3.308593-10.773438zm0 0" fill="#4caf50"/><g fill="#ffd54f"><path d="m154.089844 393.515625 48.589844-48.589844 48.917968 48.921875-48.585937 48.585938zm0 0"/><path d="m154.097656 266.1875 48.921875-48.921875 48.585938 48.589844-48.917969 48.917969zm0 0"/><path d="m90.414062 329.863281 48.589844-48.589843 48.585938 48.589843-48.585938 48.585938zm0 0"/><path d="m217.757812 329.855469 48.921876-48.921875 48.917968 48.921875-48.917968 48.917969zm0 0"/><path d="m330.667969 314.769531-48.914063-48.917969 31.828125-31.832031c13.78125 21.078125 22.742188 45.546875 26.21875 71.617188zm0 0"/><path d="m300.609375 216.828125-33.917969 33.941406-48.578125-48.578125 25.066407-25.066406c21.699218 7.59375 41.324218 21.183594 57.429687 39.703125zm0 0"/><path d="m218.925781 171.195312-15.914062 15.914063-15.957031-15.957031c10.75-1.535156 21.140624-1.535156 31.871093.042968zm0 0"/><path d="m162.753906 177.039062 25.175782 25.152344-48.917969 48.917969-34.089844-34.089844c16.167969-18.710937 35.945313-32.363281 57.832031-39.980469zm0 0"/><path d="m91.949219 234.234375 31.980469 31.957031-48.578126 48.578125-9.40625-9.410156c3.476563-25.898437 12.371094-50.175781 26.003907-71.125zm0 0"/><path d="m75.332031 344.933594 48.574219 48.574218-32.085938 32.085938c-13.632812-20.992188-22.503906-45.3125-25.941406-71.210938zm0 0"/><path d="m104.75 442.851562 34.238281-34.238281 48.917969 48.917969-25.40625 25.40625c-21.847656-7.65625-41.578125-21.351562-57.75-40.085938zm0 0"/><path d="m186.753906 488.847656 16.257813-16.253906 16.210937 16.210938c-10.964844 1.578124-21.546875 1.621093-32.46875.042968zm0 0"/><path d="m243.417969 482.832031-25.324219-25.324219 48.574219-48.574218 34.09375 34.089844c-16.066407 18.5625-35.648438 32.171874-57.34375 39.808593zm0 0"/><path d="m313.730469 425.828125-31.976563-31.976563 48.914063-48.917968 9.175781 9.171875c-3.414062 26.113281-12.351562 50.582031-26.113281 71.722656zm0 0"/></g><path d="m277.082031 189.625c-4.566406 0-8.792969-2.941406-10.199219-7.527344-1.726562-5.632812 1.429688-11.605468 7.0625-13.335937 23.488282-7.230469 60.03125-12.03125 87.808594-15.550781-30.488281-10.15625-69.441406-7.703126-93.570312-4.609376-3.390625.40625-6.890625-.832031-9.238282-3.390624-2.34375-2.558594-3.285156-6.121094-2.515624-9.515626 4.652343-20.820312 26.390624-39.421874 49.835937-52.949218-25.386719.042968-40.429687 4.054687-52.394531 19.222656-2.816406 3.5625-7.574219 4.992188-11.882813 3.476562-4.269531-1.515624-7.148437-5.546874-7.148437-10.089843 0-19.199219-8.449219-30.230469-19.179688-44.183594-4.160156-5.417969-8.617187-11.21875-12.820312-17.875-4.203125 6.65625-8.660156 12.457031-12.820313 17.875-10.730469 13.953125-19.179687 24.984375-19.179687 44.183594 0 4.542969-2.878906 8.574219-7.167969 10.070312-4.308594 1.511719-9.066406.105469-11.882813-3.457031-11.96875-15.167969-27.007812-19.179688-52.394531-19.222656 23.46875 13.546875 45.207031 32.148437 49.835938 52.949218.765625 3.394532-.171875 6.933594-2.496094 9.515626-2.328125 2.582031-5.78125 3.796874-9.238281 3.390624-24.085938-3.09375-63.082032-5.546874-93.566406 4.609376 27.730468 3.519531 64.191406 8.320312 87.65625 15.53125 5.632812 1.726562 8.789062 7.679687 7.0625 13.3125-1.726563 5.628906-7.679688 8.808593-13.332032 7.058593-22.636718-6.953125-60.035156-11.6875-87.339844-15.144531-12.886718-1.644531-23.445312-2.988281-29.226562-4.140625-3.988281-.808594-7.167969-3.816406-8.214844-7.742187-1.042968-3.925782.234375-8.105469 3.308594-10.773438 29.160156-25.300781 76.050781-28.800781 116.007812-25.921875-14.503906-16.574219-44.03125-33.363281-69.460937-41.171875-4.949219-1.515625-8.082031-6.355469-7.488281-11.476562.640625-5.121094 4.84375-9.066407 10.007812-9.367188l4.863282-.277344c42.964843-2.453125 72.40625-4.136718 94.785156 10.667969 4.285156-14.398437 12.523437-25.109375 20.5625-35.5625 7.210937-9.386719 14.65625-19.09375 19.820312-32.105469 3.222656-8.128906 16.597656-8.128906 19.839844 0 5.164062 13.011719 12.609375 22.71875 19.820312 32.105469 8.042969 10.472656 16.277344 21.183594 20.5625 35.5625 22.402344-14.785156 51.839844-13.121094 94.785157-10.667969l4.863281.277344c5.121094.300781 9.324219 4.246094 9.964844 9.367188.617187 5.121093-2.539063 9.960937-7.46875 11.476562-25.429688 7.808594-54.953125 24.597656-69.480469 41.171875 40-2.941406 86.867187.597656 116.007813 25.921875 3.074218 2.667969 4.351562 6.847656 3.308593 10.792969-1.046875 3.925781-4.246093 6.933593-8.234375 7.722656-5.78125 1.152344-16.382812 2.519531-29.292968 4.160156-27.347657 3.476563-64.789063 8.214844-87.402344 15.191407-1.023438.320312-2.089844.445312-3.132813.445312zm0 0"/><path d="m266.667969 404.515625c-2.730469 0-5.460938-1.042969-7.550781-3.113281l-64-64c-4.160157-4.160156-4.160157-10.921875 0-15.082032l64-64c4.160156-4.160156 10.921874-4.160156 15.082031 0l64 64c4.160156 4.160157 4.160156 10.921876 0 15.082032l-64 64c-2.070313 2.070312-4.800781 3.113281-7.53125 3.113281zm-48.914063-74.664063 48.914063 48.917969 48.917969-48.917969-48.917969-48.917968zm0 0"/><path d="m203.011719 468.199219c-2.730469 0-5.460938-1.046875-7.554688-3.117188l-64-64c-4.160156-4.160156-4.160156-10.921875 0-15.082031l63.660157-63.660156c4.160156-4.160156 10.921874-4.160156 15.082031 0l64 64c4.160156 4.160156 4.160156 10.925781 0 15.085937l-63.65625 63.65625c-2.070313 2.070313-4.800781 3.117188-7.53125 3.117188zm-48.917969-74.667969 48.917969 48.917969 48.574219-48.578125-48.917969-48.917969zm0 0"/><path d="m203.011719 212.859375c-2.730469 0-5.460938-1.046875-7.554688-3.117187l-37.289062-37.308594c-2.667969-2.667969-3.734375-6.53125-2.792969-10.199219.9375-3.648437 3.710938-6.527344 7.335938-7.59375 27.179687-7.957031 53.527343-7.914063 80.535156.085937 3.605468 1.066407 6.378906 3.964844 7.296875 7.59375.914062 3.648438-.128907 7.507813-2.796875 10.175782l-37.226563 37.226562c-2.046875 2.089844-4.777343 3.136719-7.507812 3.136719zm-15.957031-41.707031 15.957031 15.957031 15.914062-15.914063c-10.753906-1.578124-21.097656-1.578124-31.871093-.042968zm0 0"/><path d="m330.667969 340.515625c-2.730469 0-5.460938-1.042969-7.550781-3.113281l-64-64c-4.160157-4.160156-4.160157-10.921875 0-15.082032l48.300781-48.300781c2.175781-2.175781 5.074219-3.285156 8.234375-3.113281 3.070312.191406 5.886718 1.707031 7.765625 4.140625 21.183593 27.5625 34.386719 61.246094 38.183593 97.34375.34375 3.199219-.789062 6.378906-3.070312 8.660156l-20.332031 20.332031c-2.070313 2.089844-4.800781 3.132813-7.53125 3.132813zm-48.914063-74.664063 48.914063 48.917969 9.132812-9.132812c-3.476562-26.070313-12.4375-50.539063-26.21875-71.617188zm0 0"/><path d="m351.042969 360.890625c-2.773438 0-5.503907-1.089844-7.550781-3.113281l-20.375-20.375c-4.160157-4.160156-4.160157-10.921875 0-15.082032l20.332031-20.332031c2.898437-2.898437 7.230469-3.925781 11.113281-2.515625 3.882812 1.363282 6.613281 4.84375 7.039062 8.9375.746094 7.105469 1.238282 14.292969 1.238282 21.609375 0 7.210938-.46875 14.296875-1.195313 21.3125-.425781 4.074219-3.15625 7.574219-7.039062 8.941407-1.152344.425781-2.367188.617187-3.5625.617187zm0 0"/><path d="m139.011719 404.199219c-2.730469 0-5.460938-1.046875-7.554688-3.117188l-63.65625-63.679687c-4.160156-4.160156-4.160156-10.921875 0-15.082032l63.65625-63.660156c4.160157-4.160156 10.925781-4.160156 15.085938 0l63.65625 63.660156c4.160156 4.160157 4.160156 10.921876 0 15.082032l-63.65625 63.660156c-2.070313 2.089844-4.800781 3.136719-7.53125 3.136719zm-48.597657-74.347657 48.574219 48.574219 48.578125-48.574219-48.578125-48.578124zm0 0"/><path d="m202.667969 340.515625c-2.730469 0-5.460938-1.042969-7.550781-3.113281l-63.660157-63.660156c-4.160156-4.15625-4.160156-10.921876 0-15.082032l64-64c4.160157-4.160156 10.925781-4.160156 15.085938 0l63.65625 63.660156c4.160156 4.160157 4.160156 10.921876 0 15.082032l-64 64c-2.070313 2.070312-4.800781 3.113281-7.53125 3.113281zm-48.574219-74.324219 48.574219 48.578125 48.917969-48.917969-48.574219-48.578124zm0 0"/><path d="m266.667969 276.515625c-2.730469 0-5.460938-1.042969-7.550781-3.113281l-63.660157-63.660156c-4.160156-4.15625-4.160156-10.921876 0-15.082032l37.226563-37.226562c2.773437-2.773438 6.765625-3.816406 10.5625-2.6875 31.210937 9.195312 58.941406 28.671875 80.171875 56.320312 3.261719 4.246094 2.878906 10.261719-.917969 14.039063l-48.300781 48.296875c-2.070313 2.070312-4.800781 3.113281-7.53125 3.113281zm-48.574219-74.324219 48.574219 48.578125 33.921875-33.941406c-16.085938-18.539063-35.710938-32.109375-57.429688-39.722656zm0 0"/><path d="m202.839844 511.355469c-13.246094 0-26.835938-2.027344-40.425782-6.058594-3.605468-1.066406-6.378906-3.96875-7.296874-7.59375-.917969-3.648437.128906-7.511719 2.792968-10.179687l37.546875-37.542969c4.160157-4.160157 10.925781-4.160157 15.085938 0l37.480469 37.480469c2.667968 2.667968 3.710937 6.527343 2.796874 10.15625-.917968 3.648437-3.691406 6.546874-7.296874 7.59375-13.652344 4.074218-27.351563 6.144531-40.683594 6.144531zm-16.085938-22.507813c10.921875 1.578125 21.503906 1.535156 32.449219-.042968l-16.214844-16.210938zm0 0"/><path d="m240.492188 505.660156c-2.792969 0-5.503907-1.089844-7.550782-3.117187l-37.484375-37.480469c-4.160156-4.160156-4.160156-10.925781 0-15.082031l63.660157-63.660157c4.160156-4.160156 10.921874-4.160156 15.082031 0l48.449219 48.449219c3.777343 3.773438 4.179687 9.769531.917968 14.035157-21.183594 27.648437-48.875 47.148437-80.066406 56.449218-.980469.277344-2.003906.40625-3.007812.40625zm-22.398438-48.128906 25.324219 25.320312c21.695312-7.636718 41.300781-21.265624 57.34375-39.804687l-34.09375-34.09375zm0 0"/><path d="m165.464844 505.742188c-1.003906 0-2.027344-.148438-3.03125-.445313-31.378906-9.257813-59.199219-28.863281-80.488282-56.703125-3.242187-4.246094-2.839843-10.242188.9375-14.019531l48.597657-48.59375c4.160156-4.160157 10.921875-4.160157 15.082031 0l64 64c4.160156 4.15625 4.160156 10.921875 0 15.082031l-37.546875 37.546875c-2.046875 2.046875-4.777344 3.132813-7.550781 3.132813zm-60.714844-62.890626c16.148438 18.710938 35.902344 32.429688 57.769531 40.066407l25.410157-25.410157-48.917969-48.914062zm0 0"/><path d="m315.117188 452.964844c-2.816407 0-5.523438-1.109375-7.550782-3.113282l-48.449218-48.449218c-4.160157-4.160156-4.160157-10.921875 0-15.082032l64-64c4.160156-4.160156 10.921874-4.160156 15.082031 0l20.375 20.371094c2.261719 2.261719 3.390625 5.441406 3.070312 8.640625-3.734375 36.140625-16.894531 69.847657-38.058593 97.472657-1.875 2.433593-4.691407 3.949218-7.765626 4.160156-.234374 0-.46875 0-.703124 0zm-33.363282-59.113282 31.976563 31.976563c13.761719-21.140625 22.699219-45.609375 26.113281-71.722656l-9.175781-9.171875zm0 0"/><path d="m54.679688 361.167969c-1.195313 0-2.390626-.191407-3.5625-.617188-3.882813-1.367187-6.613282-4.84375-7.039063-8.941406-.746094-7.082031-1.238281-14.269531-1.238281-21.589844 0-7.445312.511718-14.71875 1.28125-21.90625.445312-4.074219 3.175781-7.554687 7.058594-8.917969 3.839843-1.367187 8.195312-.382812 11.09375 2.515626l20.609374 20.609374c4.160157 4.160157 4.160157 10.921876 0 15.082032l-20.652343 20.652344c-2.046875 2.023437-4.753907 3.113281-7.550781 3.113281zm0 0"/><path d="m90.414062 452.773438c-.234374 0-.46875 0-.703124-.019532-3.074219-.214844-5.910157-1.730468-7.765626-4.160156-20.992187-27.5-34.09375-61.035156-37.847656-96.960938-.339844-3.199218.789063-6.378906 3.074219-8.664062l20.648437-20.648438c4.160157-4.160156 10.921876-4.160156 15.082032 0l63.660156 63.660157c4.160156 4.15625 4.160156 10.921875 0 15.082031l-48.597656 48.597656c-2.027344 2.003906-4.734375 3.113282-7.550782 3.113282zm-24.535156-98.367188c3.4375 25.898438 12.308594 50.21875 25.941406 71.210938l32.085938-32.085938-48.574219-48.578125zm0 0"/><path d="m75.332031 340.515625c-2.730469 0-5.460937-1.042969-7.554687-3.113281l-20.605469-20.609375c-2.285156-2.28125-3.414063-5.460938-3.074219-8.660157 3.820313-35.925781 16.941406-69.417968 37.972656-96.875 1.878907-2.429687 4.695313-3.945312 7.765626-4.160156 3.074218-.0625 6.101562.917969 8.257812 3.09375l48.449219 48.449219c4.160156 4.160156 4.160156 10.921875 0 15.082031l-63.660157 63.660156c-2.089843 2.089844-4.820312 3.132813-7.550781 3.132813zm-9.386719-35.15625 9.40625 9.410156 48.578126-48.578125-31.980469-31.957031c-13.632813 20.949219-22.527344 45.226563-26.003907 71.125zm0 0"/><path d="m139.011719 276.859375c-2.730469 0-5.460938-1.046875-7.554688-3.117187l-48.445312-48.46875c-3.777344-3.773438-4.183594-9.769532-.917969-14.035157 21.332031-27.820312 49.195312-47.382812 80.617188-56.597656 3.734374-1.109375 7.789062-.066406 10.539062 2.6875l37.3125 37.3125c4.160156 4.160156 4.160156 10.921875 0 15.082031l-64 64c-2.089844 2.089844-4.820312 3.136719-7.550781 3.136719zm-34.089844-59.839844 34.089844 34.089844 48.917969-48.917969-25.175782-25.152344c-21.886718 7.617188-41.664062 21.269532-57.832031 39.980469zm0 0"/></svg>