<svg height="512pt" viewBox="-53 0 512 512.0242" width="512pt" xmlns="http://www.w3.org/2000/svg"><path d="m245.238281 129.667969c.578125-13.121094 4.417969-21.015625 6.527344-24.429688 17.023437-5.160156 67.199219-22.824219 68.226563-51.519531.167968-4.777344-2.859376-9.066406-7.402344-10.539062-4.523438-1.425782-9.515625.300781-12.140625 4.269531-7.765625 11.710937-21.566407 11.414062-30.785157 9.554687 3.949219-12.5 9.300782-33 7.597657-47.550781-.554688-4.886719-4.417969-8.769531-9.304688-9.34375-4.90625-.726563-9.554687 2.21875-11.285156 6.847656-2.792969 7.445313-15.039063 19.179688-26.835937 28.695313-3.582032-9.496094-9.621094-21.699219-19.347657-32.195313-4.035156-4.351562-11.605469-4.351562-15.640625 0-9.746094 10.496094-15.761718 22.699219-19.347656 32.195313-11.796875-9.496094-24.042969-21.25-26.835938-28.695313-1.730468-4.628906-6.527343-7.550781-11.285156-6.847656-4.886718.597656-8.726562 4.457031-9.304687 9.34375-1.683594 14.570313 3.671875 35.03125 7.597656 47.550781-9.21875 1.878906-23.042969 2.136719-30.765625-9.535156-2.644531-3.96875-7.570312-5.714844-12.136719-4.265625-4.566406 1.449219-7.59375 5.757813-7.425781 10.539063 1.027344 28.757812 51.4375 46.421874 68.355469 51.5625 2.410156 3.582031 6.78125 11.796874 6.890625 24.253906-93.570313 17.304687-160.5781252 96.085937-160.5781252 190.464844 0 105.878906 90.9218752 192 202.6679692 192 111.742187 0 202.664062-86.121094 202.664062-192 0-92.308594-68.199219-172.585938-160.105469-190.355469zm0 0" fill="#ff5722"/><path d="m362.679688 320.023438c0 88.367187-71.636719 160-160 160-88.367188 0-160-71.632813-160-160 0-88.363282 71.632812-160 160-160 88.363281 0 160 71.636718 160 160zm0 0" fill="#ff9800"/><g fill="#f44336"><path d="m138.679688 256.023438c16.085937 0 27.988281-12.757813 29.289062-14.230469 3.628906-4.050781 3.628906-10.175781 0-14.226563-1.300781-1.453125-13.203125-14.207031-29.289062-14.207031-6.082032 0-11.628907 2.792969-15.210938 7.679687-2.773438 3.753907-4.289062 8.597657-4.289062 13.652344 0 12.160156 8.382812 21.332032 19.5 21.332032zm0 0"/><path d="m160.011719 277.359375c-6.078125 0-11.625 2.792969-15.210938 7.65625-2.773437 3.777344-4.289062 8.621094-4.289062 13.675781 0 12.160156 8.386719 21.332032 19.5 21.332032 16.085937 0 27.988281-12.777344 29.292969-14.207032 3.625-4.054687 3.625-10.199218 0-14.25-1.304688-1.429687-13.207032-14.207031-29.292969-14.207031zm0 0"/><path d="m74.679688 277.359375c-6.082032 0-11.628907 2.792969-15.210938 7.65625-2.773438 3.777344-4.289062 8.621094-4.289062 13.675781 0 12.160156 8.382812 21.332032 19.5 21.332032 16.085937 0 27.988281-12.777344 29.289062-14.207032 3.628906-4.054687 3.628906-10.199218 0-14.25-1.300781-1.429687-13.203125-14.207031-29.289062-14.207031zm0 0"/><path d="m138.679688 405.359375c-6.082032 0-11.628907 2.792969-15.210938 7.65625-2.773438 3.777344-4.289062 8.621094-4.289062 13.675781 0 12.160156 8.382812 21.332032 19.5 21.332032 16.085937 0 27.988281-12.777344 29.289062-14.207032 3.628906-4.054687 3.628906-10.199218 0-14.25-1.300781-1.429687-13.203125-14.207031-29.289062-14.207031zm0 0"/><path d="m160.011719 341.359375c-6.078125 0-11.625 2.792969-15.210938 7.65625-2.773437 3.777344-4.289062 8.621094-4.289062 13.675781 0 12.160156 8.386719 21.332032 19.5 21.332032 16.085937 0 27.988281-12.777344 29.292969-14.207032 3.625-4.054687 3.625-10.199218 0-14.25-1.304688-1.429687-13.207032-14.207031-29.292969-14.207031zm0 0"/><path d="m74.679688 341.359375c-6.082032 0-11.628907 2.792969-15.210938 7.65625-2.773438 3.777344-4.289062 8.621094-4.289062 13.675781 0 12.160156 8.382812 21.332032 19.5 21.332032 16.085937 0 27.988281-12.777344 29.289062-14.207032 3.628906-4.054687 3.628906-10.199218 0-14.25-1.300781-1.429687-13.203125-14.207031-29.289062-14.207031zm0 0"/><path d="m266.679688 213.359375c-16.085938 0-27.992188 12.753906-29.292969 14.226563-3.625 4.054687-3.625 10.175781 0 14.230468 1.300781 1.449219 13.207031 14.207032 29.292969 14.207032 6.078124 0 11.625-2.792969 15.210937-7.679688 2.75-3.753906 4.285156-8.597656 4.285156-13.652344 0-12.160156-8.382812-21.332031-19.496093-21.332031zm0 0"/><path d="m245.34375 320.023438c6.082031 0 11.628906-2.792969 15.210938-7.65625 2.753906-3.777344 4.289062-8.597657 4.289062-13.675782 0-12.160156-8.382812-21.332031-19.5-21.332031-16.082031 0-27.988281 12.777344-29.289062 14.207031-3.625 4.050782-3.625 10.195313 0 14.25 1.300781 1.429688 13.207031 14.207032 29.289062 14.207032zm0 0"/><path d="m330.679688 320.023438c6.078124 0 11.625-2.792969 15.210937-7.65625 2.75-3.777344 4.285156-8.597657 4.285156-13.675782 0-12.160156-8.382812-21.332031-19.496093-21.332031-16.085938 0-27.992188 12.777344-29.292969 14.207031-3.625 4.050782-3.625 10.195313 0 14.25 1.300781 1.429688 13.207031 14.207032 29.292969 14.207032zm0 0"/><path d="m266.679688 405.359375c-16.085938 0-27.992188 12.777344-29.292969 14.207031-3.625 4.050782-3.625 10.195313 0 14.25 1.300781 1.429688 13.207031 14.207032 29.292969 14.207032 6.078124 0 11.625-2.792969 15.210937-7.65625 2.75-3.777344 4.285156-8.597657 4.285156-13.675782 0-12.160156-8.382812-21.332031-19.496093-21.332031zm0 0"/><path d="m260.554688 376.367188c2.753906-3.777344 4.289062-8.597657 4.289062-13.675782 0-12.160156-8.382812-21.332031-19.5-21.332031-16.082031 0-27.988281 12.777344-29.289062 14.207031-3.625 4.050782-3.625 10.195313 0 14.25 1.300781 1.429688 13.207031 14.207032 29.289062 14.207032 6.082031 0 11.628906-2.792969 15.210938-7.65625zm0 0"/><path d="m330.679688 341.359375c-16.085938 0-27.992188 12.777344-29.292969 14.207031-3.625 4.050782-3.625 10.195313 0 14.25 1.300781 1.429688 13.207031 14.207032 29.292969 14.207032 6.078124 0 11.625-2.792969 15.210937-7.65625 2.75-3.777344 4.285156-8.597657 4.285156-13.675782 0-12.160156-8.382812-21.332031-19.496093-21.332031zm0 0"/></g><path d="m202.679688 512.023438c-111.746094 0-202.6679692-86.121094-202.6679692-192 0-94.378907 67.0312502-173.160157 160.5546872-190.484376-.085937-12.4375-4.457031-20.652343-6.867187-24.257812-16.917969-5.117188-67.308594-22.804688-68.355469-51.539062-.167969-4.78125 2.859375-9.089844 7.425781-10.539063 4.5-1.429687 9.492188.296875 12.136719 4.265625 7.703125 11.648438 21.503906 11.414062 30.765625 9.535156-3.925781-12.519531-9.28125-32.980468-7.597656-47.550781.578125-4.886719 4.417969-8.746094 9.304687-9.34375 5.074219-.660156 9.554688 2.238281 11.261719 6.847656 2.796875 7.445313 15.0625 19.179688 26.839844 28.671875 3.582031-9.472656 9.621093-21.695312 19.367187-32.191406 4.011719-4.351562 11.628906-4.351562 15.617188 0 9.75 10.496094 15.789062 22.699219 19.371094 32.191406 11.777343-9.492187 24.042968-21.246094 26.835937-28.671875 1.707031-4.609375 6.1875-7.507812 11.265625-6.847656 4.886719.597656 8.726562 4.457031 9.324219 9.34375 1.683593 14.570313-3.671875 35.074219-7.597657 47.574219 9.195313 1.855468 23.019532 2.152344 30.765626-9.558594 2.644531-3.96875 7.636718-5.714844 12.136718-4.265625 4.566406 1.449219 7.574219 5.757813 7.425782 10.539063-1.046876 28.671874-51.203126 46.335937-68.226563 51.519531-2.132813 3.390625-5.949219 11.304687-6.546875 24.425781 91.925781 17.75 160.125 98.027344 160.125 190.335938 0 105.878906-90.921875 192-202.664062 192zm-62.230469-434.195313c7.253906 3.070313 14.976562 5.800781 22.464843 7.914063 1.855469.53125 3.539063 1.558593 4.882813 2.964843.707031.769531 17.644531 19.15625 13.484375 51.347657-.617188 4.757812-4.332031 8.511718-9.085938 9.195312-87.40625 12.4375-150.851562 84.265625-150.851562 170.773438 0 94.101562 81.34375 170.667968 181.335938 170.667968 99.988281 0 181.332031-76.566406 181.332031-170.667968 0-84.777344-64.851563-158.207032-150.867188-170.773438-4.992187-.722656-8.792969-4.863281-9.109375-9.898438-2.007812-32.960937 11.921875-48.894531 13.523438-50.582031 1.324218-1.429687 3.03125-2.472656 4.886718-2.984375 7.464844-2.113281 15.1875-4.863281 22.441407-7.9375-5.054688-1.023437-9.558594-2.472656-13.097657-4.011718-5.226562-2.257813-7.746093-8.210938-5.761718-13.546876 1.175781-3.089843 2.921875-8.253906 4.671875-14.226562-9.707031 8.46875-18.730469 14.78125-20.628907 16.105469-2.964843 2.046875-6.761718 2.453125-10.132812 1.089843-3.328125-1.386718-5.78125-4.375-6.441406-7.917968 0-.210938-2.605469-13.671875-10.816406-27.007813-8.171876 13.292969-10.816407 26.753907-10.839844 26.925781-.636719 3.5625-3.070313 6.570313-6.417969 7.957032-3.328125 1.386718-7.167969.957031-10.15625-1.089844-1.898437-1.320312-10.921875-7.636719-20.628906-16.105469 1.75 5.992188 3.5 11.15625 4.671875 14.230469 2.003906 5.332031-.511719 11.285156-5.761719 13.542969-3.519531 1.558593-8.042969 3.03125-13.097656 4.035156zm0 0"/><path d="m138.679688 256.023438c-11.117188 0-19.5-9.171876-19.5-21.332032 0-5.054687 1.515624-9.898437 4.265624-13.675781 3.605469-4.863281 9.152344-7.65625 15.234376-7.65625 16.105468 0 27.988281 12.777344 29.289062 14.226563 3.605469 4.054687 3.605469 10.175781 0 14.230468-1.300781 1.429688-13.183594 14.207032-29.289062 14.207032zm0 0"/><path d="m160.011719 320.023438c-11.113281 0-19.5-9.171876-19.5-21.332032 0-5.054687 1.515625-9.921875 4.269531-13.675781 3.605469-4.863281 9.152344-7.65625 15.230469-7.65625 16.105469 0 27.988281 12.777344 29.292969 14.226563 3.601562 4.03125 3.601562 10.175781 0 14.207031-1.304688 1.453125-13.1875 14.230469-29.292969 14.230469zm0 0"/><path d="m74.679688 320.023438c-11.117188 0-19.5-9.171876-19.5-21.332032 0-5.054687 1.515624-9.921875 4.265624-13.675781 3.605469-4.863281 9.152344-7.65625 15.234376-7.65625 16.105468 0 27.988281 12.777344 29.289062 14.226563 3.605469 4.03125 3.605469 10.175781 0 14.207031-1.300781 1.453125-13.183594 14.230469-29.289062 14.230469zm0 0"/><path d="m138.679688 448.023438c-11.117188 0-19.5-9.171876-19.5-21.332032 0-5.054687 1.515624-9.921875 4.265624-13.675781 3.605469-4.863281 9.152344-7.65625 15.234376-7.65625 16.105468 0 27.988281 12.777344 29.289062 14.226563 3.605469 4.03125 3.605469 10.175781 0 14.207031-1.300781 1.453125-13.183594 14.230469-29.289062 14.230469zm2.003906-20.246094h.234375zm0 0"/><path d="m160.011719 384.023438c-11.113281 0-19.5-9.171876-19.5-21.332032 0-5.054687 1.515625-9.921875 4.269531-13.675781 3.605469-4.863281 9.152344-7.65625 15.230469-7.65625 16.105469 0 27.988281 12.777344 29.292969 14.226563 3.601562 4.03125 3.601562 10.175781 0 14.207031-1.304688 1.453125-13.1875 14.230469-29.292969 14.230469zm2.003906-20.246094h.238281zm0 0"/><path d="m74.679688 384.023438c-11.117188 0-19.5-9.171876-19.5-21.332032 0-5.054687 1.515624-9.921875 4.265624-13.675781 3.605469-4.863281 9.152344-7.65625 15.234376-7.65625 16.105468 0 27.988281 12.777344 29.289062 14.226563 3.605469 4.03125 3.605469 10.175781 0 14.207031-1.300781 1.453125-13.183594 14.230469-29.289062 14.230469zm2.003906-20.246094h.234375zm0 0"/><path d="m266.679688 256.023438c-16.109376 0-27.992188-12.777344-29.292969-14.230469-3.605469-4.050781-3.605469-10.175781 0-14.226563 1.300781-1.429687 13.183593-14.207031 29.292969-14.207031 11.113281 0 19.496093 9.171875 19.496093 21.332031 0 5.054688-1.511719 9.898438-4.265625 13.675782-3.605468 4.863281-9.152344 7.65625-15.230468 7.65625zm0 0"/><path d="m245.34375 320.023438c-16.105469 0-27.988281-12.777344-29.289062-14.230469-3.605469-4.03125-3.605469-10.175781 0-14.207031 1.300781-1.449219 13.183593-14.226563 29.289062-14.226563 11.117188 0 19.5 9.171875 19.5 21.332031 0 5.054688-1.515625 9.917969-4.265625 13.675782-3.605469 4.863281-9.152344 7.65625-15.234375 7.65625zm0 0"/><path d="m330.679688 320.023438c-16.109376 0-27.992188-12.777344-29.292969-14.230469-3.605469-4.03125-3.605469-10.175781 0-14.207031 1.300781-1.449219 13.183593-14.226563 29.292969-14.226563 11.113281 0 19.496093 9.171875 19.496093 21.332031 0 5.054688-1.511719 9.917969-4.265625 13.675782-3.605468 4.863281-9.152344 7.65625-15.230468 7.65625zm0 0"/><path d="m266.679688 448.023438c-16.109376 0-27.992188-12.777344-29.292969-14.230469-3.605469-4.03125-3.605469-10.175781 0-14.207031 1.300781-1.449219 13.183593-14.226563 29.292969-14.226563 11.113281 0 19.496093 9.171875 19.496093 21.332031 0 5.054688-1.511719 9.917969-4.265625 13.675782-3.605468 4.863281-9.152344 7.65625-15.230468 7.65625zm0 0"/><path d="m245.34375 384.023438c-16.105469 0-27.988281-12.777344-29.289062-14.230469-3.605469-4.03125-3.605469-10.175781 0-14.207031 1.300781-1.449219 13.183593-14.226563 29.289062-14.226563 11.117188 0 19.5 9.171875 19.5 21.332031 0 5.054688-1.515625 9.917969-4.265625 13.675782-3.605469 4.863281-9.152344 7.65625-15.234375 7.65625zm0 0"/><path d="m330.679688 384.023438c-16.109376 0-27.992188-12.777344-29.292969-14.230469-3.605469-4.03125-3.605469-10.175781 0-14.207031 1.300781-1.449219 13.183593-14.226563 29.292969-14.226563 11.113281 0 19.496093 9.171875 19.496093 21.332031 0 5.054688-1.511719 9.917969-4.265625 13.675782-3.605468 4.863281-9.152344 7.65625-15.230468 7.65625zm0 0"/></svg>