<svg height="512pt" viewBox="-75 0 512 512.01671" width="512pt" xmlns="http://www.w3.org/2000/svg"><path d="m209.738281 2.683594c-3.351562-2.964844-8.238281-3.5625-12.246093-1.324219-.171876.066406-16.386719 8.554687-32.429688-.0625-3.519531-1.878906-7.828125-1.664063-11.089844.597656-3.285156 2.261719-5.058594 6.164063-4.566406 10.132813l21.332031 170.667968c.683594 5.351563 5.269531 9.320313 10.582031 9.320313.320313 0 .640626 0 .960938-.042969 5.714844-.488281 10.003906-5.4375 9.707031-11.15625-5.121093-100.949218 20.308594-165.480468 20.585938-166.121094 1.683593-4.203124.53125-9.003906-2.835938-12.011718zm0 0" fill="#388e3c"/><g fill="#3f51b5"><path d="m224.007812 224.015625c0 23.566406-19.101562 42.667969-42.667968 42.667969-23.5625 0-42.664063-19.101563-42.664063-42.667969 0-23.5625 19.101563-42.664063 42.664063-42.664063 23.566406 0 42.667968 19.101563 42.667968 42.664063zm0 0"/><path d="m96.007812 298.683594c0 23.5625-19.101562 42.667968-42.667968 42.667968-23.5625 0-42.664063-19.105468-42.664063-42.667968s19.101563-42.667969 42.664063-42.667969c23.566406 0 42.667968 19.105469 42.667968 42.667969zm0 0"/><path d="m181.339844 298.683594c0 23.5625-19.101563 42.667968-42.664063 42.667968-23.566406 0-42.667969-19.105468-42.667969-42.667968s19.101563-42.667969 42.667969-42.667969c23.5625 0 42.664063 19.105469 42.664063 42.667969zm0 0"/><path d="m266.675781 298.683594c0 23.5625-19.101562 42.667968-42.667969 42.667968-23.5625 0-42.667968-19.105468-42.667968-42.667968s19.105468-42.667969 42.667968-42.667969c23.566407 0 42.667969 19.105469 42.667969 42.667969zm0 0"/><path d="m352.007812 298.683594c0 23.5625-19.101562 42.667968-42.667968 42.667968-23.5625 0-42.664063-19.105468-42.664063-42.667968s19.101563-42.667969 42.664063-42.667969c23.566406 0 42.667968 19.105469 42.667968 42.667969zm0 0"/><path d="m309.339844 224.015625c0 23.566406-19.101563 42.667969-42.664063 42.667969-23.566406 0-42.667969-19.101563-42.667969-42.667969 0-23.5625 19.101563-42.664063 42.667969-42.664063 23.5625 0 42.664063 19.101563 42.664063 42.664063zm0 0"/><path d="m138.675781 224.015625c0 23.566406-19.101562 42.667969-42.667969 42.667969-23.5625 0-42.667968-19.101563-42.667968-42.667969 0-23.5625 19.105468-42.664063 42.667968-42.664063 23.566407 0 42.667969 19.101563 42.667969 42.664063zm0 0"/><path d="m224.007812 373.351562c0 23.5625-19.101562 42.664063-42.667968 42.664063-23.5625 0-42.664063-19.101563-42.664063-42.664063 0-23.566406 19.101563-42.667968 42.664063-42.667968 23.566406 0 42.667968 19.101562 42.667968 42.667968zm0 0"/><path d="m309.339844 373.351562c0 23.5625-19.101563 42.664063-42.664063 42.664063-23.566406 0-42.667969-19.101563-42.667969-42.664063 0-23.566406 19.101563-42.667968 42.667969-42.667968 23.5625 0 42.664063 19.101562 42.664063 42.667968zm0 0"/><path d="m181.339844 458.683594c0 23.5625-19.101563 42.667968-42.664063 42.667968-23.566406 0-42.667969-19.105468-42.667969-42.667968s19.101563-42.667969 42.667969-42.667969c23.5625 0 42.664063 19.105469 42.664063 42.667969zm0 0"/><path d="m266.675781 458.683594c0 23.5625-19.101562 42.667968-42.667969 42.667968-23.5625 0-42.667968-19.105468-42.667968-42.667968s19.105468-42.667969 42.667968-42.667969c23.566407 0 42.667969 19.105469 42.667969 42.667969zm0 0"/><path d="m138.675781 373.351562c0 23.5625-19.101562 42.664063-42.667969 42.664063-23.5625 0-42.667968-19.101563-42.667968-42.664063 0-23.566406 19.105468-42.667968 42.667968-42.667968 23.566407 0 42.667969 19.101562 42.667969 42.667968zm0 0"/></g><path d="m216.113281 86.738281c37.933594-39.746093 79.320313-47.167969 95.46875-30.273437 16.148438 16.917968.9375 51.777344-36.992187 91.519531-37.929688 39.746094-77.097656 47.167969-93.25 30.25-16.148438-16.917969-3.175782-51.773437 34.773437-91.496094zm0 0" fill="#4caf50"/><path d="m181.339844 192.015625c-5.332032 0-9.898438-3.96875-10.578125-9.34375l-21.335938-170.664063c-.488281-3.992187 1.261719-7.875 4.546875-10.136718 3.285156-2.28125 7.570313-2.472656 11.089844-.597656 16.066406 8.640624 32.277344.152343 32.449219.066406 3.925781-2.199219 8.855469-1.621094 12.226562 1.320312 3.390625 3.011719 4.519531 7.808594 2.835938 11.992188-.257813.640625-25.707031 65.171875-20.566407 166.121094.300782 5.738281-4.011718 10.667968-9.726562 11.15625-.320312.066406-.640625.085937-.941406.085937zm-8.679688-166.058594 4.863282 38.914063c2.859374-16.023438 6.078124-28.992188 8.808593-38.636719-4.160156.425781-8.789062.46875-13.671875-.277344zm0 0"/><path d="m181.339844 277.351562c-29.394532 0-53.332032-23.917968-53.332032-53.335937s23.9375-53.332031 53.332032-53.332031c29.398437 0 53.335937 23.914062 53.335937 53.332031s-23.9375 53.335937-53.335937 53.335937zm0-85.335937c-17.640625 0-32 14.359375-32 32 0 17.644531 14.359375 32 32 32 17.644531 0 32-14.355469 32-32 0-17.640625-14.355469-32-32-32zm0 0"/><path d="m53.339844 352.015625c-29.394532 0-53.3320315-23.914063-53.3320315-53.332031 0-29.417969 23.9374995-53.332032 53.3320315-53.332032 29.398437 0 53.335937 23.914063 53.335937 53.332032 0 29.417968-23.9375 53.332031-53.335937 53.332031zm0-85.332031c-17.640625 0-32 14.355468-32 32 0 17.640625 14.359375 32 32 32 17.644531 0 32-14.359375 32-32 0-17.644532-14.355469-32-32-32zm0 0"/><path d="m138.675781 352.015625c-29.398437 0-53.335937-23.914063-53.335937-53.332031 0-29.417969 23.9375-53.332032 53.335937-53.332032 29.398438 0 53.332031 23.914063 53.332031 53.332032 0 29.417968-23.933593 53.332031-53.332031 53.332031zm0-85.332031c-17.644531 0-32 14.355468-32 32 0 17.640625 14.355469 32 32 32 17.640625 0 32-14.359375 32-32 0-17.644532-14.359375-32-32-32zm0 0"/><path d="m224.007812 352.015625c-29.398437 0-53.332031-23.914063-53.332031-53.332031 0-29.417969 23.933594-53.332032 53.332031-53.332032 29.398438 0 53.332032 23.914063 53.332032 53.332032 0 29.417968-23.933594 53.332031-53.332032 53.332031zm0-85.332031c-17.640624 0-32 14.355468-32 32 0 17.640625 14.359376 32 32 32 17.644532 0 32-14.359375 32-32 0-17.644532-14.355468-32-32-32zm0 0"/><path d="m309.339844 352.015625c-29.394532 0-53.332032-23.914063-53.332032-53.332031 0-29.417969 23.9375-53.332032 53.332032-53.332032 29.398437 0 53.335937 23.914063 53.335937 53.332032 0 29.417968-23.9375 53.332031-53.335937 53.332031zm0-85.332031c-17.640625 0-32 14.355468-32 32 0 17.640625 14.359375 32 32 32 17.644531 0 32-14.359375 32-32 0-17.644532-14.355469-32-32-32zm0 0"/><path d="m266.675781 277.351562c-29.398437 0-53.335937-23.917968-53.335937-53.335937s23.9375-53.332031 53.335937-53.332031c29.398438 0 53.332031 23.914062 53.332031 53.332031s-23.933593 53.335937-53.332031 53.335937zm0-85.335937c-17.644531 0-32 14.359375-32 32 0 17.644531 14.355469 32 32 32 17.640625 0 32-14.355469 32-32 0-17.640625-14.359375-32-32-32zm0 0"/><path d="m96.007812 277.351562c-29.398437 0-53.332031-23.917968-53.332031-53.335937s23.933594-53.332031 53.332031-53.332031c29.398438 0 53.332032 23.914062 53.332032 53.332031s-23.933594 53.335937-53.332032 53.335937zm0-85.335937c-17.640624 0-32 14.359375-32 32 0 17.644531 14.359376 32 32 32 17.644532 0 32-14.355469 32-32 0-17.640625-14.355468-32-32-32zm0 0"/><path d="m181.339844 426.683594c-29.394532 0-53.332032-23.914063-53.332032-53.332032 0-29.421874 23.9375-53.335937 53.332032-53.335937 29.398437 0 53.335937 23.914063 53.335937 53.335937 0 29.417969-23.9375 53.332032-53.335937 53.332032zm0-85.332032c-17.640625 0-32 14.355469-32 32 0 17.640626 14.359375 32 32 32 17.644531 0 32-14.359374 32-32 0-17.644531-14.355469-32-32-32zm0 0"/><path d="m266.675781 426.683594c-29.398437 0-53.335937-23.914063-53.335937-53.332032 0-29.421874 23.9375-53.335937 53.335937-53.335937 29.398438 0 53.332031 23.914063 53.332031 53.335937 0 29.417969-23.933593 53.332032-53.332031 53.332032zm0-85.332032c-17.644531 0-32 14.355469-32 32 0 17.640626 14.355469 32 32 32 17.640625 0 32-14.359374 32-32 0-17.644531-14.359375-32-32-32zm0 0"/><path d="m138.675781 512.015625c-29.398437 0-53.335937-23.914063-53.335937-53.332031 0-29.417969 23.9375-53.332032 53.335937-53.332032 29.398438 0 53.332031 23.914063 53.332031 53.332032 0 29.417968-23.933593 53.332031-53.332031 53.332031zm0-85.332031c-17.644531 0-32 14.355468-32 32 0 17.640625 14.355469 32 32 32 17.640625 0 32-14.359375 32-32 0-17.644532-14.359375-32-32-32zm0 0"/><path d="m224.007812 512.015625c-29.398437 0-53.332031-23.914063-53.332031-53.332031 0-29.417969 23.933594-53.332032 53.332031-53.332032 29.398438 0 53.332032 23.914063 53.332032 53.332032 0 29.417968-23.933594 53.332031-53.332032 53.332031zm0-85.332031c-17.640624 0-32 14.355468-32 32 0 17.640625 14.359376 32 32 32 17.644532 0 32-14.359375 32-32 0-17.644532-14.355468-32-32-32zm0 0"/><path d="m96.007812 426.683594c-29.398437 0-53.332031-23.914063-53.332031-53.332032 0-29.421874 23.933594-53.335937 53.332031-53.335937 29.398438 0 53.332032 23.914063 53.332032 53.335937 0 29.417969-23.933594 53.332032-53.332032 53.332032zm0-85.332032c-17.640624 0-32 14.355469-32 32 0 17.640626 14.359376 32 32 32 17.644532 0 32-14.359374 32-32 0-17.644531-14.355468-32-32-32zm0 0"/><path d="m181.339844 192.015625c-5.886719 0-10.664063-4.777344-10.664063-10.664063 0-66.796874 43.390625-138.667968 138.664063-138.667968 5.890625 0 10.667968 4.777344 10.667968 10.667968 0 88.125-50.539062 138.664063-138.667968 138.664063zm117.015625-127.613281c-68.523438 4.753906-101.847657 54.078125-105.921875 105.980468 65.046875-3.730468 102.230468-40.9375 105.921875-105.980468zm0 0"/></svg>