<svg height="490.66667pt" viewBox="0 0 490.66667 490.66667" width="490.66667pt" xmlns="http://www.w3.org/2000/svg"><path d="m490.667969 245.332031c0 135.496094-109.839844 245.335938-245.335938 245.335938-135.492187 0-245.332031-109.839844-245.332031-245.335938 0-135.492187 109.839844-245.332031 245.332031-245.332031 135.496094 0 245.335938 109.839844 245.335938 245.332031zm0 0" fill="#8bc34a"/><g fill="#cddc39"><path d="m235.476562 185.429688c1.664063 3.96875 5.546876 6.570312 9.855469 6.570312 4.3125 0 8.191407-2.601562 9.855469-6.570312l40.109375-96.449219c4.992187-9.984375 4.457031-21.632813-1.410156-31.125-5.867188-9.492188-16.0625-15.1875-27.21875-15.1875h-42.648438c-11.15625 0-21.332031 5.671875-27.199219 15.167969-5.867187 9.492187-6.421874 21.140624-1.726562 30.460937zm0 0"/><path d="m255.210938 305.238281c-1.664063-3.992187-5.546876-6.570312-9.855469-6.570312-4.308594 0-8.191407 2.601562-9.855469 6.570312l-40.109375 96.445313c-4.992187 9.984375-4.480469 21.632812 1.386719 31.128906 5.847656 9.511719 16.042968 15.1875 27.222656 15.1875h42.625c11.175781 0 21.375-5.675781 27.21875-15.1875 5.867188-9.496094 6.402344-21.144531 1.707031-30.445312zm0 0"/><path d="m432.8125 196.800781c-9.472656-5.867187-21.121094-6.402343-30.464844-1.730469l-97.132812 40.386719c-3.96875 1.664063-6.546875 5.546875-6.546875 9.875 0 4.3125 2.578125 8.191407 6.570312 9.835938l96.445313 40.105469c4.566406 2.285156 9.453125 3.414062 14.335937 3.414062 5.824219 0 11.628907-1.621094 16.8125-4.800781 9.492188-5.886719 15.167969-16.0625 15.167969-27.21875v-42.648438c0-11.15625-5.675781-21.351562-15.1875-27.21875zm0 0"/><path d="m185.429688 255.1875c3.988281-1.640625 6.570312-5.523438 6.570312-9.855469 0-4.308593-2.582031-8.191406-6.570312-9.832031l-96.449219-40.109375c-10.027344-4.992187-21.609375-4.4375-31.144531 1.386719-9.496094 5.890625-15.167969 16.066406-15.167969 27.222656v42.644531c0 11.15625 5.671875 21.335938 15.1875 27.222657 5.25 3.242187 11.136719 4.863281 16.960937 4.863281 4.691406 0 9.34375-1.046875 13.503906-3.136719zm0 0"/><path d="m283.050781 207.617188c2.046875 2.046874 4.777344 3.113281 7.550781 3.113281 1.367188 0 2.753907-.253907 4.054688-.808594l96.574219-39.851563c10.582031-3.542968 18.433593-12.117187 21.015625-23 2.558594-10.878906-.621094-22.101562-8.511719-29.992187l-30.144531-30.144531c-7.914063-7.914063-19.242188-11.09375-29.972656-8.511719-10.882813 2.558594-19.480469 10.429687-22.742188 20.332031l-40.128906 97.234375c-1.664063 4.011719-.746094 8.578125 2.304687 11.628907zm0 0"/><path d="m207.617188 283.050781c-3.050782-3.050781-7.617188-3.945312-11.605469-2.324219l-96.554688 39.847657c-10.582031 3.542969-18.433593 12.117187-21.015625 23-2.558594 10.878906.621094 22.101562 8.511719 29.992187l30.144531 30.144532c6.101563 6.101562 14.167969 9.386718 22.550782 9.386718 2.453124 0 4.949218-.296875 7.421874-.875 10.902344-2.558594 19.5-10.410156 22.765626-20.328125l40.105468-97.238281c1.644532-3.988281.726563-8.554688-2.324218-11.605469zm0 0"/><path d="m391.894531 320.851562-97.238281-40.125c-3.988281-1.621093-8.535156-.746093-11.605469 2.324219-3.050781 3.050781-3.96875 7.617188-2.304687 11.605469l39.828125 96.554688c3.523437 10.601562 12.117187 18.453124 23 21.035156 2.472656.574218 4.96875.875 7.445312.875 8.382813 0 16.445313-3.285156 22.546875-9.386719l30.144532-30.144531c7.894531-7.894532 11.09375-19.113282 8.511718-29.972656-2.578125-10.859376-10.410156-19.5-20.328125-22.765626zm0 0"/><path d="m98.792969 169.8125 97.238281 40.128906c1.324219.535156 2.6875.8125 4.054688.8125 2.773437 0 5.503906-1.089844 7.550781-3.117187 3.050781-3.050781 3.96875-7.617188 2.304687-11.605469l-39.828125-96.574219c-3.542969-10.605469-12.160156-18.476562-23.019531-21.035156-10.753906-2.519531-22.082031.617187-29.996094 8.53125l-30.144531 30.144531c-7.890625 7.914063-11.089844 19.117188-8.511719 29.996094 2.582032 10.859375 10.433594 19.457031 20.351563 22.71875zm0 0"/></g><path d="m245.332031 490.667969c-135.273437 0-245.332031-110.058594-245.332031-245.335938 0-135.273437 110.058594-245.332031 245.332031-245.332031 135.277344 0 245.335938 110.058594 245.335938 245.332031 0 135.277344-110.058594 245.335938-245.335938 245.335938zm0-469.335938c-123.519531 0-224 100.480469-224 224s100.480469 224 224 224 224-100.480469 224-224-100.480469-224-224-224zm0 0"/><path d="m245.332031 490.667969c-135.273437 0-245.332031-110.058594-245.332031-245.335938 0-135.273437 110.058594-245.332031 245.332031-245.332031 135.277344 0 245.335938 110.058594 245.335938 245.332031 0 135.277344-110.058594 245.335938-245.335938 245.335938zm0-469.335938c-123.519531 0-224 100.480469-224 224s100.480469 224 224 224 224-100.480469 224-224-100.480469-224-224-224zm0 0"/><path d="m245.332031 192c-4.308593 0-8.191406-2.582031-9.855469-6.570312l-40.382812-97.109376c-4.695312-9.34375-4.160156-20.949218 1.707031-30.484374 5.867188-9.496094 16.0625-15.167969 27.21875-15.167969h42.648438c11.15625 0 21.332031 5.671875 27.21875 15.1875 5.867187 9.492187 6.402343 21.121093 1.410156 31.125l-40.109375 96.449219c-1.664062 3.988281-5.542969 6.570312-9.855469 6.570312zm-21.3125-128c-5.375 0-8.125 3.542969-9.066406 5.054688-.9375 1.515624-2.878906 5.570312-.46875 10.371093l30.847656 74.132813 30.570313-73.453125c2.710937-5.460938.769531-9.511719-.167969-11.050781-.941406-1.535157-3.714844-5.054688-9.066406-5.054688zm0 0"/><path d="m266.667969 448h-42.667969c-11.15625 0-21.332031-5.675781-27.222656-15.167969-5.867188-9.492187-6.398438-21.140625-1.386719-31.148437l40.109375-96.445313c1.640625-3.992187 5.523438-6.570312 9.832031-6.570312 4.3125 0 8.191407 2.578125 9.855469 6.570312l40.386719 97.128907c4.691406 9.34375 4.160156 20.972656-1.707031 30.484374-5.867188 9.472657-16.042969 15.148438-27.199219 15.148438zm-21.335938-110.890625-30.570312 73.449219c-2.707031 5.484375-.789063 9.515625.171875 11.050781.960937 1.515625 3.710937 5.058594 9.066406 5.058594h42.667969c5.351562 0 8.125-3.542969 9.066406-5.058594.9375-1.511719 2.878906-5.566406.46875-10.367187zm0 0"/><path d="m245.332031 192c-4.308593 0-8.191406-2.582031-9.855469-6.570312l-40.382812-97.109376c-4.695312-9.34375-4.160156-20.949218 1.707031-30.484374 5.867188-9.496094 16.0625-15.167969 27.21875-15.167969h42.648438c11.15625 0 21.332031 5.671875 27.21875 15.1875 5.867187 9.492187 6.402343 21.121093 1.410156 31.125l-40.109375 96.449219c-1.664062 3.988281-5.542969 6.570312-9.855469 6.570312zm-21.3125-128c-5.375 0-8.125 3.542969-9.066406 5.054688-.9375 1.515624-2.878906 5.570312-.46875 10.371093l30.847656 74.132813 30.570313-73.453125c2.710937-5.460938.769531-9.511719-.167969-11.050781-.941406-1.535157-3.714844-5.054688-9.066406-5.054688zm0 0"/><path d="m266.667969 448h-42.667969c-11.15625 0-21.332031-5.675781-27.222656-15.167969-5.867188-9.492187-6.398438-21.140625-1.386719-31.148437l40.109375-96.445313c1.640625-3.992187 5.523438-6.570312 9.832031-6.570312 4.3125 0 8.191407 2.578125 9.855469 6.570312l40.386719 97.128907c4.691406 9.34375 4.160156 20.972656-1.707031 30.484374-5.867188 9.472657-16.042969 15.148438-27.199219 15.148438zm-21.335938-110.890625-30.570312 73.449219c-2.707031 5.484375-.789063 9.515625.171875 11.050781.960937 1.515625 3.710937 5.058594 9.066406 5.058594h42.667969c5.351562 0 8.125-3.542969 9.066406-5.058594.9375-1.511719 2.878906-5.566406.46875-10.367187zm0 0"/><path d="m416.019531 298.6875c-4.882812 0-9.769531-1.128906-14.3125-3.390625l-96.449219-40.109375c-3.988281-1.664062-6.589843-5.542969-6.589843-9.855469 0-4.308593 2.601562-8.191406 6.570312-9.855469l97.128907-40.40625c9.324218-4.671874 20.972656-4.117187 30.464843 1.730469 9.492188 5.867188 15.167969 16.042969 15.167969 27.199219v42.667969c0 11.15625-5.675781 21.332031-15.167969 27.199219-5.183593 3.222656-10.988281 4.820312-16.8125 4.820312zm-78.910156-53.355469 73.449219 30.570313c5.503906 2.710937 9.558594.789062 11.050781-.167969 1.515625-.941406 5.058594-3.714844 5.058594-9.066406v-42.648438c0-5.351562-3.542969-8.125-5.058594-9.066406-1.511719-.9375-5.589844-2.878906-10.367187-.46875zm0 0"/><path d="m74.816406 298.730469c-5.804687 0-11.710937-1.621094-16.980468-4.886719-9.496094-5.863281-15.167969-16.042969-15.167969-27.199219v-42.644531c0-11.15625 5.671875-21.332031 15.167969-27.199219 9.511718-5.867187 21.140624-6.402343 31.125-1.410156l96.445312 40.109375c4.011719 1.640625 6.59375 5.523438 6.59375 9.832031 0 4.3125-2.601562 8.191407-6.570312 9.855469l-97.109376 40.386719c-4.183593 2.089843-8.789062 3.15625-13.503906 3.15625zm-.234375-85.355469c-2.644531 0-4.566406.980469-5.503906 1.558594-1.535156.9375-5.078125 3.710937-5.078125 9.066406v42.644531c0 5.355469 3.542969 8.128907 5.054688 9.066407 1.539062.941406 5.570312 2.882812 10.390624.46875l74.132813-30.847657-73.449219-30.570312c-2.070312-1-3.949218-1.386719-5.546875-1.386719zm0 0"/><path d="m416.019531 298.6875c-4.882812 0-9.769531-1.128906-14.3125-3.390625l-96.449219-40.109375c-3.988281-1.664062-6.589843-5.542969-6.589843-9.855469 0-4.308593 2.601562-8.191406 6.570312-9.855469l97.128907-40.40625c9.324218-4.671874 20.972656-4.117187 30.464843 1.730469 9.492188 5.867188 15.167969 16.042969 15.167969 27.199219v42.667969c0 11.15625-5.675781 21.332031-15.167969 27.199219-5.183593 3.222656-10.988281 4.820312-16.8125 4.820312zm-78.910156-53.355469 73.449219 30.570313c5.503906 2.710937 9.558594.789062 11.050781-.167969 1.515625-.941406 5.058594-3.714844 5.058594-9.066406v-42.648438c0-5.351562-3.542969-8.125-5.058594-9.066406-1.511719-.9375-5.589844-2.878906-10.367187-.46875zm0 0"/><path d="m74.816406 298.730469c-5.804687 0-11.710937-1.621094-16.980468-4.886719-9.496094-5.863281-15.167969-16.042969-15.167969-27.199219v-42.644531c0-11.15625 5.671875-21.332031 15.167969-27.199219 9.511718-5.867187 21.140624-6.402343 31.125-1.410156l96.445312 40.109375c4.011719 1.640625 6.59375 5.523438 6.59375 9.832031 0 4.3125-2.601562 8.191407-6.570312 9.855469l-97.109376 40.386719c-4.183593 2.089843-8.789062 3.15625-13.503906 3.15625zm-.234375-85.355469c-2.644531 0-4.566406.980469-5.503906 1.558594-1.535156.9375-5.078125 3.710937-5.078125 9.066406v42.644531c0 5.355469 3.542969 8.128907 5.054688 9.066407 1.539062.941406 5.570312 2.882812 10.390624.46875l74.132813-30.847657-73.449219-30.570312c-2.070312-1-3.949218-1.386719-5.546875-1.386719zm0 0"/><path d="m290.601562 210.753906c-2.773437 0-5.503906-1.089844-7.550781-3.117187-3.050781-3.050781-3.96875-7.617188-2.324219-11.605469l40.105469-97.257812c3.285157-9.921876 11.882813-17.769532 22.761719-20.332032 10.839844-2.558594 22.082031.597656 29.972656 8.511719l30.167969 30.144531c7.890625 7.894532 11.09375 19.117188 8.511719 29.972656-2.582032 10.882813-10.433594 19.480469-21.035156 23.019532l-96.554688 39.832031c-1.324219.554687-2.6875.832031-4.054688.832031zm60.4375-111.832031c-1.066406 0-1.941406.148437-2.539062.300781-1.746094.425782-5.972656 1.917969-7.679688 6.996094l-30.589843 74.238281 73.554687-30.335937c5.78125-1.960938 7.296875-6.207032 7.703125-7.933594.425781-1.75.960938-6.207031-2.835937-10.007812l-30.167969-30.140626c-2.515625-2.519531-5.332031-3.117187-7.445313-3.117187zm0 0"/><path d="m139.648438 413.097656c-8.363282 0-16.449219-3.285156-22.550782-9.386718l-30.144531-30.144532c-7.890625-7.890625-11.089844-19.113281-8.511719-29.949218 2.5625-10.902344 10.410156-19.5 21.015625-23.042969l96.574219-39.828125c3.988281-1.621094 8.554688-.726563 11.605469 2.304687 3.050781 3.027344 3.96875 7.617188 2.324219 11.605469l-40.125 97.238281c-3.265626 9.898438-11.863282 17.75-22.722657 20.328125-2.496093.597656-4.992187.875-7.464843.875zm40.808593-102.890625-73.554687 30.335938c-5.78125 1.964843-7.277344 6.210937-7.703125 7.9375-.40625 1.75-.9375 6.207031 2.839843 10.003906l30.140626 30.144531c3.800781 3.777344 8.234374 3.242188 10.007812 2.835938 1.726562-.425782 5.949219-1.917969 7.636719-6.996094zm0 0"/><path d="m290.601562 210.753906c-2.773437 0-5.503906-1.089844-7.550781-3.117187-3.050781-3.050781-3.96875-7.617188-2.324219-11.605469l40.105469-97.257812c3.285157-9.921876 11.882813-17.769532 22.761719-20.332032 10.839844-2.558594 22.082031.597656 29.972656 8.511719l30.167969 30.144531c7.890625 7.894532 11.09375 19.117188 8.511719 29.972656-2.582032 10.882813-10.433594 19.480469-21.035156 23.019532l-96.554688 39.832031c-1.324219.554687-2.6875.832031-4.054688.832031zm60.4375-111.832031c-1.066406 0-1.941406.148437-2.539062.300781-1.746094.425782-5.972656 1.917969-7.679688 6.996094l-30.589843 74.238281 73.554687-30.335937c5.78125-1.960938 7.296875-6.207032 7.703125-7.933594.425781-1.75.960938-6.207031-2.835937-10.007812l-30.167969-30.140626c-2.515625-2.519531-5.332031-3.117187-7.445313-3.117187zm0 0"/><path d="m139.648438 413.097656c-8.363282 0-16.449219-3.285156-22.550782-9.386718l-30.144531-30.144532c-7.890625-7.890625-11.089844-19.113281-8.511719-29.949218 2.5625-10.902344 10.410156-19.5 21.015625-23.042969l96.574219-39.828125c3.988281-1.621094 8.554688-.726563 11.605469 2.304687 3.050781 3.027344 3.96875 7.617188 2.324219 11.605469l-40.125 97.238281c-3.265626 9.898438-11.863282 17.75-22.722657 20.328125-2.496093.597656-4.992187.875-7.464843.875zm40.808593-102.890625-73.554687 30.335938c-5.78125 1.964843-7.277344 6.210937-7.703125 7.9375-.40625 1.75-.9375 6.207031 2.839843 10.003906l30.140626 30.144531c3.800781 3.777344 8.234374 3.242188 10.007812 2.835938 1.726562-.425782 5.949219-1.917969 7.636719-6.996094zm0 0"/><path d="m351.039062 413.097656c-2.472656 0-4.949218-.277344-7.445312-.875-10.878906-2.558594-19.496094-10.410156-23.019531-21.011718l-39.847657-96.554688c-1.644531-3.988281-.726562-8.554688 2.324219-11.605469 3.050781-3.070312 7.636719-3.96875 11.605469-2.304687l97.238281 40.128906c9.898438 3.261719 17.769531 11.882812 20.328125 22.742188 2.5625 10.859374-.617187 22.058593-8.511718 29.949218l-30.164063 30.167969c-6.082031 6.101563-14.144531 9.363281-22.507813 9.363281zm-40.808593-102.890625 30.3125 73.558594c1.964843 5.78125 6.210937 7.296875 7.9375 7.699219 1.769531.363281 6.1875.960937 9.984375-2.835938l30.164062-30.164062c3.796875-3.796875 3.242188-8.257813 2.835938-9.984375-.402344-1.75-1.917969-5.972657-7.015625-7.660157zm0 0"/><path d="m200.085938 210.753906c-1.367188 0-2.753907-.277344-4.074219-.8125l-97.238281-40.128906c-9.898438-3.261719-17.769532-11.882812-20.332032-22.742188-2.558594-10.855468.621094-22.058593 8.511719-29.949218l30.167969-30.1875c7.890625-7.914063 19.113281-11.050782 29.972656-8.492188 10.878906 2.5625 19.5 10.410156 23.019531 21.015625l39.847657 96.554688c1.644531 3.988281.726562 8.554687-2.324219 11.605469-2.046875 2.046874-4.777344 3.136718-7.550781 3.136718zm-60.4375-111.851562c-2.113282 0-4.929688.597656-7.445313 3.113281l-30.144531 30.164063c-3.796875 3.800781-3.265625 8.257812-2.859375 9.984374.40625 1.75 1.921875 5.972657 7.019531 7.660157l74.21875 30.632812-30.316406-73.554687c-1.941406-5.78125-6.183594-7.296875-7.933594-7.703125-.578125-.128907-1.472656-.296875-2.539062-.296875zm0 0"/><path d="m351.039062 413.097656c-2.472656 0-4.949218-.277344-7.445312-.875-10.878906-2.558594-19.496094-10.410156-23.019531-21.011718l-39.847657-96.554688c-1.644531-3.988281-.726562-8.554688 2.324219-11.605469 3.050781-3.070312 7.636719-3.96875 11.605469-2.304687l97.238281 40.128906c9.898438 3.261719 17.769531 11.882812 20.328125 22.742188 2.5625 10.859374-.617187 22.058593-8.511718 29.949218l-30.164063 30.167969c-6.082031 6.101563-14.144531 9.363281-22.507813 9.363281zm-40.808593-102.890625 30.3125 73.558594c1.964843 5.78125 6.210937 7.296875 7.9375 7.699219 1.769531.363281 6.1875.960937 9.984375-2.835938l30.164062-30.164062c3.796875-3.796875 3.242188-8.257813 2.835938-9.984375-.402344-1.75-1.917969-5.972657-7.015625-7.660157zm0 0"/><path d="m200.085938 210.753906c-1.367188 0-2.753907-.277344-4.074219-.8125l-97.238281-40.128906c-9.898438-3.261719-17.769532-11.882812-20.332032-22.742188-2.558594-10.855468.621094-22.058593 8.511719-29.949218l30.167969-30.1875c7.890625-7.914063 19.113281-11.050782 29.972656-8.492188 10.878906 2.5625 19.5 10.410156 23.019531 21.015625l39.847657 96.554688c1.644531 3.988281.726562 8.554687-2.324219 11.605469-2.046875 2.046874-4.777344 3.136718-7.550781 3.136718zm-60.4375-111.851562c-2.113282 0-4.929688.597656-7.445313 3.113281l-30.144531 30.164063c-3.796875 3.800781-3.265625 8.257812-2.859375 9.984374.40625 1.75 1.921875 5.972657 7.019531 7.660157l74.21875 30.632812-30.316406-73.554687c-1.941406-5.78125-6.183594-7.296875-7.933594-7.703125-.578125-.128907-1.472656-.296875-2.539062-.296875zm0 0"/></svg>