<svg height="512pt" viewBox="-43 0 512 512.0227" width="512pt" xmlns="http://www.w3.org/2000/svg"><path d="m352.011719 330.6875c0 90.882812-43.519531 165.121094-98.773438 170.457031-.214843 0-.214843 0-.425781 0h-2.347656c-14.71875-.429687-29.011719-2.988281-42.453125-7.683593-12.375 4.054687-26.027344 6.828124-39.679688 7.683593h-3.628906c-53.332031-5.761719-90.023437-80-90.023437-170.457031 0-90.023438 36.265624-164.050781 89.386718-170.453125h4.050782c13.867187.640625 27.308593 3.203125 39.894531 7.683594 12.800781-4.269531 26.667969-6.828125 40.746093-7.683594.425782-.210937.640626 0 1.066407 0 1.066406-.210937 2.132812 0 2.988281 0h.425781c55.253907 5.335937 98.773438 79.574219 98.773438 170.453125zm0 0" fill="#ffe082"/><path d="m256.011719 149.355469c-.683594 0-1.835938.191406-2.816407.277343-.171874-.019531-.320312-.0625-.492187-.085937-.703125-.0625-1.832031-.105469-3.175781-.019531-.621094-.085938-.941406.019531-1.410156.0625-13.992188.855468-27.433594 3.222656-40 7.105468-12.5-4.097656-25.8125-6.484374-40-7.125l-3.15625.042969c-1.644532-.152343-3.371094-.257812-4.949219-.257812-91.222657 0-160.0000002 77.953125-160.0000002 181.332031 0 103.382812 68.7773432 181.335938 160.0000002 181.335938 1.515625 0 3.136719-.105469 4.734375-.214844l4.246094-.019532c12.863281-.8125 26.242187-3.242187 38.914062-7.125 13.394531 4.308594 27.605469 6.699219 42.558594 7.144532l3.070312-.042969c.832032.066406 1.878906.257813 2.476563.257813 94.101562 0 170.667969-81.34375 170.667969-181.335938 0-99.988281-76.566407-181.332031-170.667969-181.332031zm-51.328125 333.972656c-11.96875 3.925781-24.769532 6.402344-36.351563 7.148437l-1.964843.042969h-.019532c-5.484375-.511719-10.773437-2.007812-15.894531-4.265625-.296875-.128906-.597656-.214844-.894531-.34375-1.707032-.789062-3.328125-1.8125-4.992188-2.773437-1.003906-.597657-2.046875-1.066407-3.03125-1.726563-.832031-.554687-1.640625-1.257812-2.472656-1.855468-1.726562-1.261719-3.476562-2.496094-5.164062-3.96875 0 0-.042969-.042969-.0625-.066407-26.644532-23.359375-45.207032-71.335937-48.105469-128.914062-.257813-5.207031-.386719-10.519531-.386719-15.917969 0-5.351562.128906-10.644531.40625-15.847656.960938-19.222656 3.753906-37.292969 7.914062-53.847656.363282-1.449219.660157-2.941407 1.066407-4.371094.386719-1.453125.855469-2.796875 1.28125-4.203125 13.566406-46.273438 38.996093-78.058594 69.546875-81.515625h2.070312c12.90625.597656 25.320313 2.988281 36.820313 7.082031 2.261719.789063 4.691406.832031 6.953125.066406 11.777344-3.925781 24.535156-6.335937 37.953125-7.148437h.492187c.703125 0 1.703125.085937 2.386719-.042969 49.964844 4.800781 89.109375 75.03125 89.109375 159.828125 0 5.292969-.148438 10.539062-.445312 15.722656-4.480469 77.484375-41.6875 139.371094-88.449219 144.066406h-1.664063c-13.71875-.40625-26.921875-2.796874-39.253906-7.082031-2.21875-.769531-4.628906-.789062-6.847656-.066406zm0 0" fill="#ff8a65"/><path d="m125.15625 45.542969c-33.84375-33.839844-69.550781-53-79.753906-42.792969-10.207032 10.203125 8.953125 45.910156 42.792968 79.75 33.84375 33.84375 69.550782 53.003906 79.753907 42.796875 10.207031-10.207031-8.953125-45.910156-42.792969-79.753906zm0 0" fill="#4caf50"/><path d="m205.472656 235.074219c-1.769531-.449219-3.605468-.492188-5.375-.042969-2.070312.488281-50.753906 13.480469-50.753906 84.992188 0 71.507812 48.683594 84.5 50.753906 85.011718.832032.214844 1.707032.320313 2.582032.320313.808593 0 1.597656-.085938 2.386718-.277344 2.070313-.46875 50.945313-12.5 50.945313-85.054687 0-70.464844-48.46875-84.417969-50.539063-84.949219zm0 0" fill="#795548"/><path d="m256.011719 512.023438c-16.320313 0-32.449219-2.453126-48-7.296876-15.550781 4.84375-31.679688 7.296876-48 7.296876-91.222657 0-160.0000002-77.953126-160.0000002-181.335938 0-103.378906 68.7773432-181.332031 160.0000002-181.332031 16.320312 0 32.449219 2.453125 48 7.296875 15.550781-4.84375 31.679687-7.296875 48-7.296875 94.101562 0 170.667969 81.34375 170.667969 181.332031 0 99.992188-76.566407 181.335938-170.667969 181.335938zm-48-29.164063c1.152343 0 2.28125.191406 3.390625.554687 14.402344 4.820313 29.417968 7.273438 44.609375 7.273438 82.347656 0 149.332031-71.761719 149.332031-160 0-88.234375-66.984375-160-149.332031-160-15.191407 0-30.207031 2.457031-44.609375 7.277344-2.21875.746094-4.585938.746094-6.78125 0-14.402344-4.820313-29.421875-7.277344-44.609375-7.277344-79.0625 0-138.667969 68.800781-138.667969 160 0 91.203125 59.605469 160 138.667969 160 15.1875 0 30.207031-2.453125 44.609375-7.273438 1.109375-.363281 2.238281-.554687 3.390625-.554687zm0 0"/><path d="m247.03125 512.023438c-5.890625 0-10.667969-4.78125-10.667969-10.667969s4.777344-10.667969 10.667969-10.667969c52.007812 0 94.3125-71.761719 94.3125-160 0-88.234375-42.304688-160-94.3125-160-5.890625 0-10.667969-4.777344-10.667969-10.664062 0-5.890626 4.777344-10.667969 10.667969-10.667969 63.765625 0 115.648438 81.34375 115.648438 181.332031 0 99.992188-51.882813 181.335938-115.648438 181.335938zm0 0"/><path d="m171.234375 512.023438c-62.125 0-107.222656-76.265626-107.222656-181.335938 0-105.066406 45.097656-181.332031 107.222656-181.332031 5.886719 0 10.664063 4.777343 10.664063 10.667969 0 5.886718-4.757813 10.664062-10.664063 10.664062-48.960937 0-85.890625 68.800781-85.890625 160 0 91.203125 36.929688 160 85.890625 160 5.886719 0 10.664063 4.78125 10.664063 10.667969s-4.757813 10.667969-10.664063 10.667969zm0 0"/><path d="m202.679688 149.355469c-5.824219 0-10.605469-4.691407-10.667969-10.539063-.8125-65 26.859375-119.144531 70.441406-137.917968 5.398437-2.390626 11.671875.167968 14.015625 5.566406 2.328125 5.417968-.148438 11.691406-5.566406 14.015625-40.554688 17.472656-58.132813 71.894531-57.558594 118.082031.066406 5.886719-4.648438 10.707031-10.539062 10.792969-.042969 0-.085938 0-.125 0zm0 0"/><path d="m160.011719 128.023438c-77.035157 0-117.332031-59.03125-117.332031-117.335938 0-5.886719 4.777343-10.6640625 10.664062-10.6640625 77.035156 0 117.335938 59.0273435 117.335938 117.3320315 0 5.886719-4.78125 10.667969-10.667969 10.667969zm-95.425781-106.175782c4.203124 40 31 79.464844 84.183593 84.351563-4.203125-40-31-79.46875-84.183593-84.351563zm0 0"/><path d="m202.679688 405.355469c-.875 0-1.75-.105469-2.582032-.320313-2.070312-.511718-50.753906-13.503906-50.753906-85.011718 0-71.511719 48.683594-84.503907 50.753906-85.015626 1.769532-.425781 3.605469-.402343 5.375.066407 2.070313.554687 50.539063 14.484375 50.539063 84.949219 0 72.554687-48.875 84.585937-50.945313 85.054687-.789062.191406-1.578125.277344-2.386718.277344zm-.109376-148.671875c-8.167968 3.5-31.890624 17.558594-31.890624 63.339844 0 46.035156 24 60.011718 32.105468 63.421874 7.957032-3.21875 31.894532-16.722656 31.894532-63.421874 0-45.121094-23.789063-59.648438-32.109376-63.339844zm0 0"/></svg>