<svg height="512pt" viewBox="-43 0 512 512.01895" width="512pt" xmlns="http://www.w3.org/2000/svg"><path d="m403.488281 213.203125.234375-.46875c1.214844-2.601563 1.320313-5.570313.296875-8.257813-1.003906-2.6875-3.070312-4.839843-5.675781-5.992187-8.617188-3.796875-18.34375-7.148437-28.519531-10.648437-30.765625-10.578126-65.664063-22.570313-83.117188-54.269532-2.132812-3.863281-6.378906-6.058594-10.792969-5.417968-4.375.597656-7.9375 3.839843-8.917968 8.125-14.828125 63.445312-44.542969 93.613281-53.484375 98.070312-8.445313-4.757812-37.992188-36.351562-53.800781-98.261719-1.109376-4.265625-4.671876-7.421875-9.023438-7.976562-4.308594-.449219-8.554688 1.597656-10.6875 5.4375-17.472656 31.722656-52.351562 43.691406-83.117188 54.273437-10.195312 3.5-19.902343 6.847656-28.519531 10.644532-2.625 1.152343-4.671875 3.328124-5.699219 5.996093-1 2.6875-.894531 5.675781.320313 8.253907l.234375.46875c-1.277344 11.351562-1.875 21.65625-1.875 32.171874 0 121.066407 117.929688 266.667969 192 266.667969 72.960938 0 192-148.972656 192-266.667969 0-10.515624-.597656-20.820312-1.855469-32.148437zm0 0" fill="#f44336"/><g fill="#455a64"><path d="m106.675781 256.019531c-12.371093 0-21.332031 13.460938-21.332031 32 0 16.085938 12.757812 27.988281 14.226562 29.289063 2.007813 1.8125 4.566407 2.710937 7.105469 2.710937 2.539063 0 5.097657-.898437 7.105469-2.710937 1.472656-1.300782 14.226562-13.203125 14.226562-29.289063 0-18.539062-8.957031-32-21.332031-32zm0 0"/><path d="m213.34375 277.351562c-12.375 0-21.335938 13.460938-21.335938 32 0 16.085938 12.757813 27.988282 14.230469 29.292969 2.007813 1.8125 4.566407 2.707031 7.105469 2.707031s5.097656-.894531 7.101562-2.707031c1.472657-1.304687 14.230469-13.207031 14.230469-29.292969 0-18.539062-8.960937-32-21.332031-32zm0 0"/><path d="m213.34375 405.351562c-12.375 0-21.335938 13.460938-21.335938 32 0 16.085938 12.757813 27.988282 14.230469 29.292969 2.007813 1.8125 4.566407 2.707031 7.105469 2.707031s5.097656-.894531 7.101562-2.707031c1.472657-1.304687 14.230469-13.207031 14.230469-29.292969 0-18.539062-8.960937-32-21.332031-32zm0 0"/><path d="m320.007812 256.019531c-12.371093 0-21.332031 13.460938-21.332031 32 0 16.085938 12.757813 27.988281 14.230469 29.289063 2.003906 1.8125 4.566406 2.710937 7.101562 2.710937 2.539063 0 5.101563-.898437 7.105469-2.710937 1.472657-1.300782 14.230469-13.203125 14.230469-29.289063 0-18.539062-8.960938-32-21.335938-32zm0 0"/><path d="m149.34375 341.351562c-12.375 0-21.335938 13.460938-21.335938 32 0 16.085938 12.757813 27.988282 14.230469 29.292969 2.007813 1.8125 4.566407 2.707031 7.105469 2.707031s5.097656-.894531 7.101562-2.707031c1.472657-1.304687 14.230469-13.207031 14.230469-29.292969 0-18.539062-8.960937-32-21.332031-32zm0 0"/><path d="m277.34375 341.351562c-12.375 0-21.335938 13.460938-21.335938 32 0 16.085938 12.757813 27.988282 14.230469 29.292969 2.007813 1.8125 4.566407 2.707031 7.105469 2.707031s5.097656-.894531 7.101562-2.707031c1.472657-1.304687 14.230469-13.207031 14.230469-29.292969 0-18.539062-8.960937-32-21.332031-32zm0 0"/></g><path d="m212.277344 41.832031c-49.792969 0-212.2695315 12.949219-212.2695315 179.625 0 4.246094 2.5195315 8.066407 6.4023435 9.773438 3.882813 1.726562 8.425782.9375 11.519532-1.941407 4.457031-4.117187 10.625-7.789062 19.027343-11.285156 8.109375-3.5625 17.28125-6.699218 26.839844-10.007812 26.792969-9.191406 58.964844-20.242188 81.515625-45.332032 19.410156 57.621094 51.605469 93.355469 68.03125 93.355469 17.726562 0 49.832031-34.859375 68.371094-93.015625 22.53125 24.832032 54.507812 35.820313 81.175781 44.972656 9.578125 3.285157 18.730469 6.421876 27.050781 10.089844 8.210938 3.414063 14.355469 7.082032 18.816406 11.199219 3.113282 2.882813 7.636719 3.648437 11.519532 1.941406 3.882812-1.707031 6.398437-5.523437 6.398437-9.769531 0-166.65625-162.472656-179.605469-214.398437-179.605469zm0 0" fill="#4caf50"/><path d="m106.675781 320.019531c-2.539062 0-5.078125-.898437-7.105469-2.710937-1.449218-1.300782-14.226562-13.183594-14.226562-29.289063 0-18.539062 8.960938-32 21.332031-32 12.375 0 21.332031 13.460938 21.332031 32 0 16.105469-12.777343 27.988281-14.226562 29.289063-2.027344 1.8125-4.566406 2.710937-7.105469 2.710937zm0 0"/><path d="m213.34375 341.351562c-2.539062 0-5.078125-.894531-7.105469-2.707031-1.449219-1.304687-14.230469-13.1875-14.230469-29.292969 0-18.539062 8.960938-32 21.335938-32 12.371094 0 21.332031 13.460938 21.332031 32 0 16.105469-12.777343 27.988282-14.230469 29.292969-2.023437 1.8125-4.5625 2.707031-7.101562 2.707031zm0 0"/><path d="m213.34375 469.351562c-2.539062 0-5.078125-.894531-7.105469-2.707031-1.449219-1.304687-14.230469-13.1875-14.230469-29.292969 0-18.539062 8.960938-32 21.335938-32 12.371094 0 21.332031 13.460938 21.332031 32 0 16.105469-12.777343 27.988282-14.230469 29.292969-2.023437 1.8125-4.5625 2.707031-7.101562 2.707031zm0 0"/><path d="m320.007812 320.019531c-2.535156 0-5.074218-.898437-7.101562-2.710937-1.453125-1.300782-14.230469-13.183594-14.230469-29.289063 0-18.539062 8.960938-32 21.332031-32 12.375 0 21.335938 13.460938 21.335938 32 0 16.105469-12.78125 27.988281-14.230469 29.289063-2.027343 1.8125-4.566406 2.710937-7.105469 2.710937zm0 0"/><path d="m149.34375 405.351562c-2.539062 0-5.078125-.894531-7.105469-2.707031-1.449219-1.304687-14.230469-13.1875-14.230469-29.292969 0-18.539062 8.960938-32 21.335938-32 12.371094 0 21.332031 13.460938 21.332031 32 0 16.105469-12.777343 27.988282-14.230469 29.292969-2.023437 1.8125-4.5625 2.707031-7.101562 2.707031zm0 0"/><path d="m277.34375 405.351562c-2.539062 0-5.078125-.894531-7.105469-2.707031-1.449219-1.304687-14.230469-13.1875-14.230469-29.292969 0-18.539062 8.960938-32 21.335938-32 12.371094 0 21.332031 13.460938 21.332031 32 0 16.105469-12.777343 27.988282-14.230469 29.292969-2.023437 1.8125-4.5625 2.707031-7.101562 2.707031zm0 0"/><path d="m212.296875 63.121094c-.339844 0-.660156-.019532-1.003906-.039063-5.863281-.554687-10.175781-5.761719-9.621094-11.628906 2.476563-26.367187 15.277344-42.539063 40.300781-50.902344 5.652344-1.875 11.625 1.195313 13.480469 6.742188 1.859375 5.589843-1.148437 11.628906-6.738281 13.503906-17.109375 5.71875-24.109375 14.550781-25.792969 32.640625-.535156 5.546875-5.164063 9.683594-10.625 9.683594zm0 0"/><path d="m213.34375 512.019531c-74.070312 0-192-145.601562-192-266.667969 0-11.304687.703125-22.785156 2.132812-35.113281.683594-5.847656 5.910157-9.855469 11.839844-9.367187 5.84375.683594 10.046875 5.972656 9.34375 11.839844-1.324218 11.480468-1.984375 22.167968-1.984375 32.640624 0 112.898438 112.8125 245.335938 170.667969 245.335938s170.664062-132.4375 170.664062-245.335938c0-10.453124-.660156-21.121093-2.003906-32.617187-.683594-5.847656 3.5-11.136719 9.34375-11.839844 5.886719-.960937 11.136719 3.476563 11.839844 9.34375 1.453125 12.328125 2.15625 23.828125 2.15625 35.113281 0 117.695313-119.039062 266.667969-192 266.667969zm0 0"/><path d="m213.34375 256.019531c-16.386719 0-48.554688-35.734375-68.011719-93.375-22.675781 25.300781-55.082031 36.265625-82.046875 45.4375-18.476562 6.25-35.925781 12.160157-45.269531 21.035157-3.09375 2.945312-7.617187 3.734374-11.5625 2.046874-3.90625-1.683593-6.4453125-5.523437-6.4453125-9.789062 0-166.636719 162.4765625-179.585938 212.2890625-179.585938h2.113281c49.792969 0 212.289063 12.949219 212.289063 179.585938 0 4.265625-2.539063 8.105469-6.445313 9.789062-3.925781 1.6875-8.445312.898438-11.5625-2.046874-9.34375-8.875-26.792968-14.785157-45.269531-21.035157-26.835937-9.109375-59.050781-20.03125-81.726563-45.054687-18.558593 58.132812-50.667968 92.992187-68.351562 92.992187zm-64-128c.445312 0 .894531.019531 1.34375.085938 4.351562.554687 7.914062 3.691406 8.980469 7.933593 15.914062 62.058594 45.398437 93.613282 53.804687 98.285157 8.871094-4.394531 38.570313-34.519531 53.480469-98.09375 1.003906-4.285157 4.566406-7.527344 8.917969-8.125 4.4375-.535157 8.660156 1.554687 10.792968 5.417969 17.621094 31.957031 52.652344 43.859374 83.5625 54.335937 12.140626 4.09375 23.875 8.105469 34.09375 13.097656-12.90625-127.53125-147.328124-137.855469-189.953124-137.855469h-2.113282c-42.625 0-177.042968 10.324219-189.949218 137.855469 10.214843-4.992187 21.949218-9.003906 34.089843-13.097656 30.910157-10.476563 65.960938-22.378906 83.5625-54.335937 1.941407-3.414063 5.523438-5.503907 9.386719-5.503907zm0 0"/></svg>