<svg height="490pt" viewBox="0 -117 490.66667 490" width="490pt" xmlns="http://www.w3.org/2000/svg"><path d="m213.332031.332031v10.667969c0 29.398438-23.914062 53.332031-53.332031 53.332031-17.429688 0-33.769531-8.722656-43.691406-23.082031-13.121094-3.734375-23.765625-13.609375-28.414063-26.6875l-5.035156-14.230469h-72.191406v10.667969c0 129.601562 105.066406 234.667969 234.664062 234.667969 129.601563 0 234.667969-105.066407 234.667969-234.667969v-10.667969zm0 0" fill="#f44336"/><g fill="#455a64"><path d="m128.277344 70.113281c-1.898438-.574219-18.921875-5.246093-33.300782 3.050781-5.375 3.117188-8.8125 8.152344-9.644531 14.1875-.660156 4.777344.40625 9.855469 2.988281 14.335938 4.136719 7.167969 11.050782 11.136719 18.15625 11.136719 3.324219 0 6.695313-.875 9.855469-2.6875 14.378907-8.300781 18.855469-25.367188 19.304688-27.308594 1.300781-5.523437-1.898438-11.113281-7.359375-12.714844zm0 0"/><path d="m173.503906 120.71875c-1.917968.46875-19.007812 4.925781-27.265625 19.304688-5.738281 9.898437-2.089843 21.929687 8.449219 28.011718 3.710938 2.152344 7.636719 3.179688 11.414062 3.179688 6.933594 0 13.375-3.457032 17.066407-9.859375 8.320312-14.375 3.648437-31.378907 3.09375-33.277344-1.644531-5.441406-7.0625-8.703125-12.757813-7.359375zm0 0"/><path d="m237.972656 141.945312c-1.40625 1.34375-13.972656 13.757813-13.972656 30.355469 0 11.414063 9.171875 20.03125 21.332031 20.03125 12.160157 0 21.335938-8.617187 21.335938-20.03125 0-16.597656-12.566407-28.992187-13.976563-30.355469-4.136718-3.925781-10.578125-3.925781-14.71875 0zm0 0"/><path d="m317.164062 120.71875c-5.699218-1.324219-11.136718 1.917969-12.738281 7.359375-.554687 1.898437-5.226562 18.902344 3.09375 33.277344 3.691407 6.402343 10.132813 9.859375 17.066407 9.859375 3.777343 0 7.703124-1.027344 11.414062-3.179688 10.515625-6.082031 14.164062-18.132812 8.449219-28.011718-8.277344-14.378907-25.367188-18.835938-27.285157-19.304688zm0 0"/><path d="m395.691406 73.164062c-14.402344-8.320312-31.445312-3.625-33.300781-3.070312-5.460937 1.621094-8.664063 7.210938-7.359375 12.714844.445312 1.917968 4.925781 19.007812 19.304688 27.304687 3.113281 1.792969 6.484374 2.710938 9.835937 2.710938 2.429687 0 4.882813-.46875 7.253906-1.429688 4.457031-1.792969 8.339844-5.269531 10.921875-9.726562 6.101563-10.519531 3.242188-22.785157-6.65625-28.503907zm-16 27.714844"/></g><path d="m106.453125 112.800781c-7.105469 0-14.015625-3.964843-18.175781-11.132812-2.582032-4.460938-3.625-9.558594-2.964844-14.335938.875-6.039062 4.289062-11.050781 9.664062-14.167969 14.355469-8.320312 31.378907-3.625 33.300782-3.070312 5.441406 1.621094 8.660156 7.210938 7.339844 12.714844-.46875 1.917968-4.929688 19.007812-19.308594 27.304687-3.15625 1.835938-6.527344 2.6875-9.855469 2.6875zm-6.144531-30.398437 5.335937 9.238281zm0 0"/><path d="m166.101562 171.214844c-3.796874 0-7.722656-1.027344-11.457031-3.179688-4.457031-2.582031-7.933593-6.464844-9.726562-10.921875-2.285157-5.65625-1.8125-11.714843 1.28125-17.089843 8.296875-14.378907 25.363281-18.835938 27.304687-19.304688 5.460938-1.261719 11.113282 1.898438 12.714844 7.335938.554688 1.898437 5.246094 18.925781-3.070312 33.300781-3.671876 6.402343-10.113282 9.859375-17.046876 9.859375zm-10.644531-25.859375 9.234375 5.335937zm0 0h.210938zm0 0"/><path d="m245.332031 192.332031c-12.160156 0-21.332031-8.617187-21.332031-20.03125 0-16.597656 12.566406-28.992187 13.996094-30.355469 4.117187-3.90625 10.558594-3.90625 14.675781 0 1.429687 1.34375 13.996094 13.738282 13.996094 30.355469 0 11.414063-9.175781 20.03125-21.335938 20.03125zm-10.664062-20.03125h10.664062zm0 0"/><path d="m324.5 171.191406c-.9375 0-1.898438-.0625-2.816406-.191406-6.035156-.832031-11.070313-4.265625-14.183594-9.644531-8.300781-14.375-3.628906-31.402344-3.074219-33.300781 1.621094-5.4375 7.316407-8.617188 12.714844-7.335938 1.921875.46875 19.007813 4.925781 27.308594 19.304688 5.714843 9.878906 2.089843 21.910156-8.449219 27.988281-3.585938 2.09375-7.574219 3.179687-11.5 3.179687zm0 0"/><path d="m384.191406 112.824219c-3.371094 0-6.71875-.894531-9.835937-2.710938-14.375-8.296875-18.835938-25.363281-19.304688-27.304687-1.324219-5.503906 1.898438-11.117188 7.339844-12.714844 1.898437-.554688 18.921875-5.25 33.300781 3.070312 9.898438 5.71875 12.777344 17.964844 6.675782 28.503907-2.582032 4.457031-6.464844 7.933593-10.941407 9.746093-2.347656.941407-4.78125 1.410157-7.234375 1.410157zm.832032-21.183594-5.332032 9.238281zm0 0"/><path d="m245.332031 256.332031c-135.273437 0-245.332031-110.058593-245.332031-245.332031 0-5.886719 4.777344-10.667969 10.667969-10.667969h87.292969c4.503906 0 8.535156 2.839844 10.050781 7.105469 2.621093 7.339844 8.980469 12.652344 16.640625 13.867188 3.21875.488281 6.015625 2.453124 7.613281 5.269531 5.71875 10.132812 16.34375 16.425781 27.734375 16.425781 17.644531 0 32-14.355469 32-32 0-5.886719 4.777344-10.667969 10.667969-10.667969h277.332031c5.886719 0 10.667969 4.78125 10.667969 10.667969 0 135.273438-110.058594 245.332031-245.335938 245.332031zm-223.742187-234.664062c5.566406 118.589843 103.808594 213.332031 223.742187 213.332031 119.9375 0 218.175781-94.742188 223.746094-213.332031h-256.8125c-4.96875 24.320312-26.496094 42.664062-52.265625 42.664062-17.449219 0-33.769531-8.722656-43.691406-23.082031-10.601563-3.027344-19.605469-10.070312-25.128906-19.582031zm0 0"/></svg>